<svg style="opacity: .6;" viewBox="10 10 800 900" xmlns="http://www.w3.org/2000/svg"><g stroke="#eaeaea" stroke-miterlimit="5"><g fill="#eaeaea"><path d="m460 997.5c-.1 0-.1 0-.2 0l-22-125.7c.9-.3 1.6-1.1 1.6-2.1 0-1.2-1-2.2-2.2-2.2-.5 0-1 .2-1.4.5l-80.8-80.2c.3-.4.5-.9.5-1.4 0-1.2-1-2.2-2.2-2.2-.9 0-1.7.6-2.1 1.4l-96.4-26.9c0-.1 0-.3 0-.4 0-1.2-1-2.2-2.2-2.2s-2.2 1-2.2 2.2c0 .1 0 .3.1.4l-109.1 31.3c-.3-.8-1.1-1.4-2-1.4-1.2 0-2.2 1-2.2 2.2 0 .8.4 1.4 1 1.8l-34.6 65.2c-.3-.1-.5-.2-.8-.2-1.2 0-2.2 1-2.2 2.2 0 .6.2 1.1.6 1.5l-48.6 52.9c-.4-.3-.8-.5-1.3-.5-1.2 0-2.2 1-2.2 2.2s.9 2.1 2.1 2.2l2.1 99.2c-1.1.1-2 1-2 2.2s1 2.2 2.2 2.2c.3 0 .6-.1.9-.2l44.9 79.3c-.6.4-1 1-1 1.8 0 1.2 1 2.2 2.2 2.2.6 0 1.1-.2 1.5-.6l53.3 50.1c-.3.4-.5.8-.5 1.4 0 1.2 1 2.2 2.2 2.2 1 0 1.9-.7 2.1-1.7l119.2 19.8v.2c0 1.2 1 2.2 2.2 2.2s2.2-1 2.2-2.2c0-.2 0-.5-.1-.7l104.2-44.9c.4.7 1.1 1.2 1.9 1.2 1.2 0 2.2-1 2.2-2.2 0-.8-.4-1.4-1-1.8v-.1c-.3-.1-.4-.6-.1-.8l.5-1.5c0-.1 0-.2.1-.3.2-.5.3-1 .6-1.5l27.7-79c1.6.4 3-.8 3-2.3 0-.6-.2-1.2-.6-1.6l37.1-39.2c.1 0 .1.1.2.1v.1c.1 0 .3 0 .4.1l.1-.2c.3.1.6.2.9.2 1.2 0 2.2-1 2.2-2.2.2-1.1-.8-2.1-2-2.1zm-24.1-125.8c-2.4 4.2-9.3 15.9-16.2 28.1v.1c-.3.6-.7 1.2-1 1.8-.2.3-.4.7-.6 1-.3.6-.6 1.1-.9 1.7-.1.2-.2.4-.3.6-.4.6-.7 1.3-1.1 1.9-.9 1.5-1.7 3-2.5 4.5-.1.1-.1.2-.2.3-.2.3-.4.7-.6 1 0 0 0 .1-.1.1-.2.3-.3.5-.4.8-.1.1-.1.2-.2.3-.1.2-.2.4-.3.6s-.2.3-.3.5-.2.4-.3.5c-.1.2-.2.4-.3.5-.1.2-.2.4-.3.5-.1.2-.2.4-.3.6s-.2.4-.3.6c-.1.1-.1.3-.2.4-.1.2-.2.5-.4.7-.1.1-.1.2-.2.4s-.2.4-.3.6c-.1.1-.1.3-.2.4-.1.2-.2.4-.3.6-.1.1-.2.3-.2.4-.1.2-.2.3-.3.5s-.2.3-.3.5c-.1.1-.1.2-.2.4s-.2.4-.3.6c-.1.1-.1.2-.2.4s-.2.4-.3.5-.1.3-.2.4-.2.3-.2.4c-.1.1-.1.3-.2.4-.1.2-.2.3-.3.5-.1.1-.1.2-.2.3-.1.2-.2.3-.3.5-.1.1-.1.2-.2.3-.1.2-.2.3-.3.5 0 .1-.1.2-.1.3-.1.2-.2.3-.2.5 0 .1-.1.2-.1.3-.1.2-.2.3-.2.4s-.1.2-.1.2c-.1.1-.1.3-.2.4 0 .1-.1.2-.1.2-.1.1-.1.3-.2.4 0 .1-.1.1-.1.2-.1.1-.1.3-.2.4 0 .1-.1.1-.1.2-.1.1-.1.2-.2.3 0 .1-.1.1-.1.2s-.1.1-.1.2c-.6-.1-1.1 0-1.5.2l-50.6-83.8c.4-.3.7-.7.9-1.1l83.7 22.5v.4c-.1.7.3 1.5 1 1.9zm-18.7 171.3-53.6 17.6c-.4-.9-1.2-1.5-2.2-1.5-.1 0-.2 0-.4 0l-11.4-48.2c.6-.2 1-.6 1.3-1.1l66.3 31.7c-.1.3-.2.6-.2.9.1.2.2.4.2.6zm-58 19.5-41.7 22.6-2 1.1c-.2-.3-.5-.6-.8-.8l21.9-48.8 11.5-25.7c.4.1.7.2 1.2.1l4.8 20.4 6.6 27.8c-1 .3-1.7 1.2-1.7 2.3 0 .3.1.7.2 1zm-177 49.6 43.2-27.6c.6.8 1.5 1.1 2.5.9l17.2 50.4c-.5.2-1 .6-1.2 1.2l-61.5-23.1c.1-.2.1-.4.1-.7 0-.4-.1-.7-.3-1.1zm-68.9-96 46.6-37.6c.4.4.9.7 1.5.7l-2 58.6c-.8 0-1.6.5-2 1.2l-26.2-12.4-17.5-8.3c.1-.3.2-.6.2-.8-.2-.5-.4-1-.6-1.4zm-59.6-100.2 96.7-11.5c0 .2.1.4.2.6l-45.9 29.6c-.5-.6-1.2-.9-1.9-.9-.9 0-1.8.5-2.2 1.4l-13.8-5.4-33.2-13c.1-.2.1-.4.1-.8 0 .1 0 .1 0 0zm51.4-56.7 78-29.5c.2.5.6.8 1 1.1l-30.7 70.8c-.8-.3-1.8-.1-2.4.5l-3.9-3.4-42.4-37.5c.3-.4.5-.9.5-1.4 0-.1 0-.4-.1-.6zm243.1-10.9-3.3 15-8.5 38.2c-.7-.1-1.3.1-1.9.5l-20.7-21.4-48.8-50.3c.2-.3.4-.6.5-.9l81 16.4v.3c0 1 .7 1.9 1.7 2.2zm51.3 86.3-40 15.6-43.8 17.1c-.2-.5-.7-.9-1.2-1.1l13-37.1 8-22.7c1.1.3 2.2-.2 2.7-1.2l47.9 21.8 13.6 6.2c-.1.3-.1.5-.1.8-.2.2-.1.4-.1.6zm-151.3 1c0 .2-.1.4-.1.6 0 .3 0 .5.1.8l-13.2 6-71.3 32.6c-.4-.8-1.2-1.2-2.1-1.2h-.1l-3.2-26.2-5.1-41.9c.8-.2 1.4-.7 1.7-1.4zm-93.1-31.1c0-.2.1-.3.1-.5l33.4-1.6 7.3-.4c.2 1.2 1.2 2.1 2.4 2.1.7 0 1.4-.3 1.9-.9l41.6 27.4 6.7 4.4c0 .1-.1.1-.1.2zm8.6 73.4 44.9 18.3 39.6 16.1c-.1.2-.1.5-.1.7 0 1 .6 1.8 1.5 2.2l-21.6 65.5c-.6-.2-1.1-.1-1.7.2l-32-51.6-31.3-50.6c.3-.2.6-.5.7-.8zm84.7 34-44.9-18.3-39.6-16.1c.1-.2.1-.5.1-.7 0-.3 0-.5-.1-.8l84.6-38.7c.4.7 1.1 1.2 1.9 1.2v72.1c-.9.1-1.6.6-2 1.3zm.2-77.2-48.3-31.8c.2-.4.3-.7.3-1.2 0-.1 0-.2 0-.3l60.3-11.8c.2.7.8 1.3 1.5 1.6l-4.4 16.4-7 26.1c-.2 0-.3 0-.4 0-.8 0-1.5.4-2 1zm2.1 3.9c.8-.1 1.4-.5 1.8-1.1l58.7 30c-.1.3-.2.6-.2.9 0 .4.1.9.3 1.2l-59.1 41.9c-.4-.5-1-.8-1.6-.9v-72zm61 31.3c.5.5 1.1.9 1.8.9.5 0 1-.2 1.4-.5l16.1 18.3 16.1 18.3c-.4.4-.7 1-.7 1.6l-93.6 4.2c0-.3-.1-.6-.3-.9zm23.4-63.8-10.5 29.9-10.5 30c-.6-.2-1.2-.1-1.7.2l-47.7-75.2c.4-.3.7-.8.9-1.2l15.5 3.2 52.7 10.8v.3c-.2.8.4 1.7 1.3 2zm-16.8-20.2 15.9 16.4c-.2.3-.4.6-.5.9l-15.5-3.2-52.7-10.8c0-.1 0-.2 0-.3 0-1.3-1-2.3-2.2-2.4v-55.6c.5 0 .9-.2 1.3-.5zm-54 5.3 4.2 6.6 43.6 68.6c-.2.2-.4.4-.6.6l-29.4-15-29.4-15c.1-.3.2-.6.2-.9 0-1-.6-1.9-1.6-2.3l5.4-20.2 6-22.2c.6.1 1.1 0 1.6-.2zm-1.3-4.5c-.6.1-1.2.3-1.6.8l-34.1-26.5-40-31c.2-.3.4-.7.4-1.1h73.1c.1 1.2 1 2.1 2.2 2.2zm-73.4-54.4 71.5 55.5c-.3.4-.4.8-.4 1.3v.3l-60.3 11.8c-.3-1-1.2-1.8-2.3-1.8-.1 0-.2 0-.2 0l-4.9-27.6-7.2-40.7c.4-.1.8-.4 1.2-.7zm2.3 34.9 5.7 32.2c-1 .3-1.8 1.2-1.8 2.2l-40.7 2c-.1-.8-.6-1.4-1.2-1.8l30.7-70.8c.3.1.7.1 1 .1zm-39.1 39.2 3 24.4 5.3 43.6c-.5.1-1 .4-1.4.8l-54.8-37.9c.2-.4.3-.8.3-1.2s-.1-.8-.3-1.1l36.8-23.7 9.1-5.9c.5.6 1.2 1 2 1zm-49.9 32.2 2 18.8 6 57.7c-1.1.2-1.9 1.1-2 2.3l-53 2c-.1-.7-.4-1.3-1-1.7l8.2-13.9 38.6-65.4c.4.1.8.2 1.2.2zm6.6 59.4-6.2-59.5c.6-.1 1.1-.4 1.4-.8l54.8 37.9c-.2.4-.3.8-.3 1.2 0 .5.1.9.4 1.3l-26.4 21.3-20.2 16.3c-.5-.5-1.1-.8-1.7-.8zm52.2-18.8c.3 0 .7-.1 1-.3l32 51.6 31.3 50.6c-.2.1-.3.3-.5.5l-64-40.3c.2-.3.3-.7.3-1.1 0-1.2-.9-2.3-2.1-2.4zm-.4 62.4 45.9 28.9 18 11.4c-.2.3-.3.7-.3 1.1s.1.8.3 1.1l-43.2 27.6c-.5-.6-1.2-1-1.9-1-.1 0-.3 0-.5.1l-17.8-62.6-1.7-5.8c.5-.1.9-.4 1.2-.8zm74.4 65.3-7.4-21.7c.8-.3 1.3-1 1.4-1.9l81.3 4.2c0 .4.1.8.4 1.2l-63.6 47.6c-.5-.5-1.1-.8-1.8-.8-.2 0-.4 0-.6.1zm75.4-19.8-81.3-4.2c0-.9-.6-1.8-1.5-2.1l21.6-65.5c.7.2 1.4 0 2-.4l9.6 11.3 50.3 59.5c-.4.4-.6.9-.7 1.4zm-32.1-40.8-26.7-31.6c.4-.4.7-1 .7-1.6l93.6-4.2c.1.8.5 1.4 1.2 1.8l-30 66.9-3.4 7.6c-.7-.3-1.6-.1-2.2.3zm68.5-39.6-32.3-36.7c.4-.5.7-1 .7-1.7 0-.2 0-.5-.1-.7l65-25.3 18.9-7.4c.1.3.4.6.6.8l-5.5 7.7-44.7 63c-.8-.4-1.8-.3-2.6.3zm52.2-73.9-47.8-21.8-13.6-6.2c.1-.3.1-.5.1-.8 0-1.1-.7-2-1.7-2.3l5-22.7 6.8-30.6c.5.1 1 0 1.4-.2l50.4 83.8c-.2.2-.4.5-.6.8zm-46.3-143.9c.6 0 1.1-.2 1.5-.6l80.5 79.9c-.2.2-.3.5-.4.7l-83.7-22.5c0-.2 0-.3 0-.4 0-1.2-.9-2.2-2-2.4l1.4-18.8zm-.4-.1-2.4 32.3-1.7 22.4c-1.1 0-2 .7-2.3 1.7l-81-16.4c0-.1 0-.2 0-.3 0-.3-.1-.6-.2-.8l85.8-40.2c.4.8 1.1 1.2 1.8 1.3zm-98-29.6 96 26.8v.5c0 .3.1.6.2.8l-85.8 40.2c-.4-.7-1.2-1.2-2.1-1.2-.1 0-.1 0-.2 0l-9.8-65.6c.8-.2 1.4-.8 1.7-1.5zm-3.8 1c.5.4 1.1.6 1.7.5l9.8 65.6c-1 .2-1.8 1.1-1.9 2.1h-73.1c0-.5-.3-1-.6-1.4l55.2-57.6zm-109.3 30.7c0-.2 0-.3-.1-.5l108.7-31.2c.1.3.3.5.4.7l-56.2 58.7-7.9 8.2c-.4-.4-1-.5-1.5-.5-.6 0-1.3.3-1.7.7l-37.8-31.2-4.4-3.6c.3-.4.5-.8.5-1.3zm-3.4 2.2c.9.4 2 .2 2.7-.5l33 27.2 9.1 7.5c-.3.4-.4.9-.4 1.4 0 .2 0 .4.1.7l-22.4 8.5-55.6 21c-.2-.4-.5-.7-.9-1zm-37.2 68.7c.4.3.9.5 1.5.5s1.2-.2 1.7-.7l1.7 1.5 44.6 39.4c-.3.4-.5.9-.5 1.4v.1l-64.4 7.7-32.2 3.8c-.1-.4-.3-.8-.6-1.1zm-47.6 155.5-2.1-98.8c.8-.1 1.5-.6 1.9-1.3l23.5 9.2 23.5 9.2c-.1.2-.1.5-.1.7 0 .8.4 1.5 1 2l-14.3 24.3-32.5 55.1c-.3-.3-.6-.4-.9-.4zm45.9 83.3-44.7-78.9c.6-.4 1-1.1 1.1-1.9l52.9-2c.1 1 .9 1.8 1.9 2.1l-10.1 80.6c-.4-.2-.7-.1-1.1.1zm1.5-.2 7-56.4 3-24.2h.1c.9 0 1.7-.5 2.1-1.2l7.1 3.3 36.7 17.4c-.1.3-.2.6-.2.8 0 .6.2 1.2.6 1.6l-55.5 59.1c-.2-.2-.5-.3-.9-.4zm56.8-58.3c.4.3 1 .5 1.5.5.1 0 .3 0 .5-.1l16.9 59.6 2.5 8.8c-.8.3-1.3.9-1.5 1.7l-74.7-9.8v-.1c0-.6-.2-1.2-.6-1.6zm-2.4 112-53-49.8c.2-.3.4-.6.5-1l74.7 9.8v.1c0 .8.4 1.6 1.1 2l-20.7 38.4c-.9-.3-1.9-.1-2.6.5zm3-.2 20.7-38.4c.3.1.6.2 1 .2.9 0 1.8-.5 2.2-1.4l15.3 5.7 46.2 17.3c-.1.2-.1.4-.1.7v.3l-9.5 1.9-74.8 15.1c-.2-.6-.5-1.1-1-1.4zm119.9 21.9-118.8-19.7c0-.1 0-.1 0-.2s0-.2 0-.3l9.5-1.9 74.8-15.1c.3 1 1.2 1.7 2.3 1.7.5 0 1-.2 1.5-.5l31.4 34.9c-.4.4-.6.7-.7 1.1zm.9-1.3-31.4-34.9c.4-.4.7-1 .7-1.6 0-.5-.1-.9-.4-1.3l50.2-37.6 13.4-10c.2.2.5.4.8.6l-19.8 53.6-11.4 30.9c-.8-.3-1.6-.2-2.1.3zm107.4-44-103.8 44.8c-.2-.5-.6-.8-1.1-1l31.1-84.4c1 .3 2.1-.1 2.6-1l71.3 39.9c-.1.3-.2.7-.2 1 0 .2 0 .4.1.7zm.3-2.1-29.2-16.3-42.1-23.6c.1-.3.2-.7.2-1s-.1-.7-.2-1l43.7-23.7c.6.9 1.7 1.3 2.7 1l6 14.7 19.8 49c-.4.3-.7.5-.9.9zm2.6-1c-.5-.1-.9-.1-1.3 0l-25.8-63.8c.8-.4 1.3-1.2 1.3-2.2 0-.2 0-.4-.1-.6l53.6-17.6c.2.6.7 1 1.2 1.3zm27.9-86.2-66.3-31.7c.1-.3.2-.6.2-.9 0-.7-.3-1.4-.9-1.8l50.1-70.7c.4.3.9.4 1.4.3l16.9 103.7c-.6.1-1.1.5-1.4 1.1zm40.7-39.9-37.1 39.2c-.4-.3-1-.5-1.5-.5-.1 0-.1 0-.2 0l-16.9-103.7c.4-.1.8-.3 1.1-.7 0 0 0 0 .1.1s.2.2.3.3c0 0 .1.1.1.1l.4.4s.1.1.1.1c.1.1.3.3.4.5 0 0 0 0 .1.1.2.2.3.3.5.5 0 0 0 0 .1.1.2.2.4.4.5.6 0 0 .1.1.1.1l.6.6c.2.2.4.4.6.7 9.3 10.1 27.9 31.6 40.2 45.9.8 1 1.6 1.9 2.4 2.8l.3.3c.2.2.4.4.6.7.1.1.1.2.2.3.2.2.3.4.5.6.4.5.8.9 1.2 1.4.2.3.5.5.7.8 2 2.4 3.7 4.3 4.8 5.6-.5.5-.7 1.1-.7 1.7-.1.4.1 1 .5 1.4zm.4-3.5c-2.4-2.9-7.7-9.1-14.2-16.6 0 0-.1-.1-.1-.1-1.6-1.9-3.3-3.9-5.1-5.9 0 0 0 0-.1-.1-.9-1.1-1.9-2.1-2.8-3.2-.2-.2-.3-.4-.5-.5 0-.1-.1-.1-.1-.2-.3-.4-.6-.7-.9-1.1-1.7-1.9-3.3-3.9-5-5.8-.7-.8-1.4-1.6-2.1-2.4-.2-.2-.3-.4-.5-.6-.1-.1-.1-.1-.2-.2-1-1.2-2-2.3-3.1-3.5-.1-.1-.2-.3-.4-.4-.2-.3-.5-.6-.7-.8-.3-.4-.7-.8-1-1.1-.2-.2-.3-.3-.5-.5s-.4-.5-.6-.7-.3-.4-.5-.6-.3-.4-.5-.5c-.2-.2-.4-.4-.5-.6-.2-.2-.3-.4-.5-.6-.1-.1-.2-.3-.4-.4-.2-.2-.4-.5-.6-.7-.1-.2-.3-.3-.4-.5-.2-.2-.4-.4-.5-.6s-.3-.3-.4-.5c-.2-.2-.4-.4-.6-.6-.1-.1-.2-.3-.4-.4-.2-.2-.4-.4-.6-.6-.1-.1-.3-.3-.4-.4-.2-.2-.4-.4-.5-.6-.1-.1-.2-.2-.3-.3-.2-.2-.4-.4-.6-.7-.1-.1-.2-.3-.3-.4-.2-.2-.3-.4-.5-.6-.1-.1-.2-.3-.4-.4-.2-.2-.3-.4-.5-.5-.1-.1-.2-.2-.3-.4-.2-.2-.3-.4-.5-.5-.1-.1-.2-.2-.3-.3-.2-.2-.3-.4-.5-.5-.1-.1-.2-.2-.3-.3-.2-.2-.3-.3-.5-.5-.1-.1-.2-.2-.3-.3-.2-.2-.3-.3-.5-.5-.1-.1-.2-.2-.3-.3-.1-.2-.3-.3-.4-.5-.1-.1-.2-.2-.3-.3s-.3-.3-.4-.4-.2-.2-.3-.3-.3-.3-.4-.4-.2-.2-.2-.2c-.1-.1-.2-.3-.4-.4-.1-.1-.2-.2-.2-.2-.1-.1-.2-.2-.3-.3s-.2-.2-.2-.2c-.1-.1-.2-.2-.3-.3s-.1-.1-.2-.2-.2-.2-.3-.3-.1-.1-.2-.2-.1-.1-.2-.2c.3-.4.4-.9.4-1.4 0-1-.6-1.9-1.5-2.2 0-.1.1-.1.1-.2s0-.1.1-.2.1-.2.2-.4c0-.1.1-.1.1-.2.1-.1.1-.3.2-.4 0-.1.1-.1.1-.2.1-.1.1-.3.2-.4 0-.1.1-.1.1-.2.1-.2.2-.3.2-.5 0-.1.1-.1.1-.2.1-.2.2-.3.3-.5 0-.1.1-.1.1-.2.1-.2.2-.4.3-.5 0-.1.1-.1.1-.2l.3-.6c0-.1.1-.2.1-.2l.3-.6c0-.1.1-.2.1-.3l.3-.6c0-.1.1-.2.1-.2l.3-.6c0-.1.1-.2.1-.2.1-.2.2-.4.4-.7 0-.1.1-.1.1-.2.1-.2.3-.5.4-.7 0-.1.1-.1.1-.2.1-.2.3-.5.4-.7 0-.1.1-.2.1-.3.1-.2.3-.5.4-.7 0-.1.1-.2.1-.3.1-.3.3-.5.4-.8 0-.1.1-.2.1-.2.1-.3.3-.5.4-.8 0-.1.1-.1.1-.2.1-.2.3-.5.4-.7.1-.1.1-.2.2-.3.1-.2.3-.5.4-.7.1-.1.1-.2.2-.3.2-.3.3-.6.5-.8 0-.1.1-.1.1-.2.2-.3.3-.6.5-.8.1-.1.1-.2.2-.3.1-.2.3-.5.4-.7s.2-.3.3-.5l.3-.6c.1-.2.2-.4.3-.5.1-.2.3-.5.4-.7.1-.1.1-.3.2-.4.2-.3.3-.5.5-.8.1-.1.1-.2.2-.4.2-.3.3-.6.5-.9 0-.1.1-.2.1-.3.1-.2.2-.4.4-.6l.3-.6s0-.1.1-.1c.4-.7.8-1.5 1.2-2.2 0-.1.1-.1.1-.2.4-.7.8-1.4 1.2-2.2 0 0 .1-.1.1-.1 7.4-12.9 14.9-25.9 17.5-30.4.3.2.7.2 1 .2h.2l21.9 125.3c.2-.3-.1-.2-.3 0z"/><circle cx="82.6" cy="792.5" r="2.1"/><circle cx="192.4" cy="718.8" r="2.1"/><circle cx="340.1" cy="738.5" r="2.1"/><circle cx="400.1" cy="792.5" r="2.1"/><circle cx="388.8" cy="707.7" r="2.1"/><circle cx="304.6" cy="704" r="2.1"/><circle cx="370.1" cy="660.1" r="2.1"/><circle cx="248.3" cy="691.4" r="2.1"/><circle cx="133.5" cy="740" r="2.1"/><circle cx="56.8" cy="756.1" r="2.1"/><circle cx="458.1" cy="782.1" r="2.1"/><circle cx="448.9" cy="712.3" r="2.1"/><circle cx="430.3" cy="640.9" r="2.1"/><circle cx="338.8" cy="645.4" r="2.1"/><circle cx="281" cy="668.9" r="2.1"/><circle cx="209.2" cy="668.9" r="2.1"/><circle cx="141.6" cy="713.8" r="2.1"/><circle cx="86.9" cy="699" r="2.1"/><circle cx="50.1" cy="664.8" r="2.1"/><circle cx="138.1" cy="655.9" r="2.1"/><circle cx="245.3" cy="623" r="2.1"/><circle cx="309.3" cy="635.1" r="2.1"/><circle cx="386.6" cy="618.4" r="2.1"/><circle cx="14.4" cy="731.7" r="2.1"/><circle cx="476.2" cy="841.2" r="2.1"/><circle cx="482.2" cy="967.4" r="2.1"/><circle cx="471.9" cy="1057.7" r="2.1"/><circle cx="437.9" cy="1124.1" r="2.1"/><circle cx="387.6" cy="1172.4" r="2.1"/><circle cx="476.2" cy="1170.2" r="2.1"/><circle cx="51.2" cy="856.5" r="2.1"/><circle cx="16.6" cy="967.4" r="2.1"/><circle cx="38.4" cy="1082" r="2.1"/><circle cx="21" cy="1137.8" r="2.1"/><circle cx="94.1" cy="1160.9" r="2.1"/><circle cx="5.7" cy="805" r="2.1"/><path d="m94.3 1161.2-.3-.1-73.1-23.1.2-.4 72.8 23.1 6.3-57.8.4.1z"/><path d="m94 1158.3h63.3v.4h-63.3z" transform="matrix(.9971 -.07624798 .07624798 .9971 -87.9681 12.9508)"/><path d="m280.7 1176.6v-.4l106.7-4 1.1-42.6h.2l49.1-5.6 34.2-67v.8l4.3 112.5.2.3h-.4l-88.5 2.1zm157.2-52.2-49.8 47.8 87.6-2.1zm-48.9 5.5-1.1 42 49.5-47.5zm49.2-5.8 37.7 45.5-4.2-111.2-33.4 65.4h.2z"/><path d="m471.8 1057.9-52.5-15.5.1-.4 52.5 15.5z"/><path d="m436.9 869.7-37.3-77.8.6.4 76.1 48.7-.2.3-75.5-48.3 36.7 76.5z"/><path d="m400.7 792.8-47.7-6.1v-.1l-13.2-48.6zm-47.4-6.5 46.2 5.9-59-53z"/><path d="m51.3 856.8-.2-.2-45.8-51.8.4-.1 77.3-12.5zm-45.2-51.7 45.1 51 31-63.4z"/><path d="m388.9 1129.9-.3-.3 83-72-11.9-57.9.1-.1c8.8-11.9 21.7-30.1 22.1-32.2v-.1c-.1-2-29.5-64.7-45.1-97.7l-.1-.2.1-.1 39.3-28.7v.4l6 126.2v.1l-10.3 90.2v.1l-.1.1zm71.3-130.1 11.6 56.6 10-87.7c-3.2 6-19.3 28-21.6 31.1zm-22.8-130.1c2.5 5.3 39.9 84.8 44.6 96.3l-6-124.5z"/><path d="m476 841.2-18-58.9-58 10.4v-.2c-.5-3.3-10.8-80.2-11.3-84.6h-.2l.1-.2v-.1h.1l41.2-66.3-59.7 19-65.5 43.9-.2-.3 65.5-43.9 60.7-19.4-.3.5-41.4 66.5 60 4.6 9.2 70 18.1 59.1zm-87-133.1c.8 6.5 10.7 79.6 11.3 84.1l57.4-10.3c-22.6-24.4-64.4-69.7-68.7-73.8zm.3-.2c1.7 1.5 8.1 8.3 34.5 36.7 15.6 16.8 31.2 33.8 34 36.8l-9.1-69z"/><path d="m20.7 1138.1 17.6-56.2 14.9-62-36.8-52.5.1-.1 34.5-51.6v-59.4l51.5 3.5-20.2-67.4 57.2-2.2 52.9-71.6.2.1 60 39.4 87.4-19.7 30.1-78.8 18.9 48.2-48.8 31-87.7 19.7h-.1l-59.9-39.3-52.8 71.4h-.1l-56.8 2.1 20.3 67.5-51.7-3.5v59.1.1l-34.6 51.5 36.7 52.5v.1l-14.8 61.9 62.3 21.1zm17.9-55.9-17.2 55.2 78.5-34.4zm331.5-421.5-29.6 77.4 48-30.4z"/><path d="m252.4 758.7v-.5l-4.3-67.2 56.5 12.6.1-.1 35.6 34.7-.3.3-35.4-34.4zm-3.9-67.1 4.2 66.2 51.5-53.7z"/><path d="m82.5 792.8-.1-.2-25.9-36.6.3-.1 77.4-16.3zm-25.4-36.6 25.5 35.9 50.3-51.9z"/><path d="m139.4 791.3-6.1-51.5h.2l58.9-21.2 55.8-27.4 32.8-22.6.1.2 23.5 34.8 34.1-58.5.2.1 31.3 14.7-.2.4-31.1-14.7-34.3 58.8-23.7-35.2-32.5 22.3-55.9 27.5-58.8 21.1 6.1 51.1z"/><path d="m448.8 712.3-18.6-71.2-91.4 4.5-57.8 23.5h-72l39.4 22.1-.2.3-40.7-22.8h73.4l57.8-23.5h.1l91.7-4.5v.2l18.6 71.3z"/><path d="m38.2 1082-21.8-114.6-10.9-162.5.1-.1 51-48.8 30.2-57.3 46.6 40.9 8-26 50.9 5 15.8-49.7.4.1-15.9 50h-.2l-50.7-5-8.1 26.3-46.7-41-29.9 56.9-.1.1-51 48.7 10.9 162.4 21.8 114.5z"/><path d="m5.9 805-.4-.1 8.8-73.5 42.6 24.5-.2.4-42.1-24.2z"/><path d="m14.6 731.8-.4-.2 35.8-67.2.1.1c3.9-.6 84.4-8.5 87.9-8.8l.6-.1-51.8 43.6-.1-.1-36.5-34zm36-66.9 36.3 33.8 50.6-42.5c-7.7.8-80.6 7.9-86.9 8.7z"/><path d="m14.5 731.9-.2-.4 72.5-32.8 54.5 14.8-3.5-57.9h.3l71.6 13.6-68.1 44.8h-.1l-54.7-14.8zm123.8-75.7 3.5 57.3 66.9-43.9z"/><path d="m209.3 669.6-.3-.3 36.3-46.6.1.2 35.6 45.7 28.2-33.7h.2l29.4 10.3 47.8-27h.1l43.7 22.5-.2.4-43.6-22.5-47.8 27-29.4-10.3-28.4 33.9-35.7-45.8z"/><path d="m138.1 656.1-.1-.4 107.3-32.9 64 12.1 77.3-16.7.1.4-77.4 16.7-64-12z"/><path d="m460 384.9c-.1 0-.1 0-.2 0l-22-125.7c.9-.3 1.6-1.1 1.6-2.1 0-1.2-1-2.2-2.2-2.2-.5 0-1 .2-1.4.5l-80.8-80.2c.3-.4.5-.9.5-1.4 0-1.2-1-2.2-2.2-2.2-.9 0-1.7.6-2.1 1.4l-96.4-26.9c0-.1 0-.3 0-.4 0-1.2-1-2.2-2.2-2.2s-2.2 1-2.2 2.2c0 .1 0 .3.1.4l-109.1 31.3c-.3-.8-1.1-1.4-2-1.4-1.2 0-2.2 1-2.2 2.2 0 .8.4 1.4 1 1.8l-34.6 65.2c-.3-.1-.5-.2-.8-.2-1.2 0-2.2 1-2.2 2.2 0 .6.2 1.1.6 1.5l-48.6 52.9c-.4-.3-.8-.5-1.3-.5-1.2 0-2.2 1-2.2 2.2s.9 2.1 2.1 2.2l2.1 99.2c-1.1.1-2 1-2 2.2s1 2.2 2.2 2.2c.3 0 .6-.1.9-.2l44.9 79.3c-.6.4-1 1-1 1.8 0 1.2 1 2.2 2.2 2.2.6 0 1.1-.2 1.5-.6l53.3 50.1c-.3.4-.5.8-.5 1.4 0 1.2 1 2.2 2.2 2.2 1 0 1.9-.7 2.1-1.7l119.2 19.8v.2c0 1.2 1 2.2 2.2 2.2s2.2-1 2.2-2.2c0-.2 0-.5-.1-.7l104.4-44.8c.4.7 1.1 1.2 1.9 1.2 1.2 0 2.2-1 2.2-2.2 0-.8-.4-1.4-1-1.8v-.1c-.3-.1-.4-.6-.1-.8l.5-1.5c0-.1 0-.2.1-.3.2-.5.3-1 .6-1.5l27.7-79c1.6.4 3-.8 3-2.3 0-.6-.2-1.2-.6-1.6l37.1-39.2c.1 0 .1.1.2.1v.1c.1 0 .3 0 .4.1l.1-.2c.3.1.6.2.9.2 1.2 0 2.2-1 2.2-2.2s-1-2.2-2.2-2.2zm-24.1-125.8c-2.4 4.2-9.3 15.9-16.2 28.1v.1c-.3.6-.7 1.2-1 1.8-.2.3-.4.7-.6 1-.3.6-.6 1.1-.9 1.7-.1.2-.2.4-.3.6-.4.6-.7 1.3-1.1 1.9-.9 1.5-1.7 3-2.5 4.5-.1.1-.1.2-.2.3-.2.3-.4.7-.6 1 0 0 0 .1-.1.1-.2.3-.3.5-.4.8-.1.1-.1.2-.2.3-.1.2-.2.4-.3.6s-.2.3-.3.5-.2.4-.3.5c-.1.2-.2.4-.3.5-.1.2-.2.4-.3.5-.1.2-.2.4-.3.6s-.2.4-.3.6c-.1.1-.1.3-.2.4-.1.2-.2.5-.4.7-.1.1-.1.2-.2.4s-.2.4-.3.6c-.1.1-.1.3-.2.4-.1.2-.2.4-.3.6-.1.1-.2.3-.2.4-.1.2-.2.3-.3.5s-.2.3-.3.5c-.1.1-.1.2-.2.4s-.2.4-.3.6c-.1.1-.1.2-.2.4s-.2.4-.3.5-.1.3-.2.4-.2.3-.2.4c-.1.1-.1.3-.2.4-.1.2-.2.3-.3.5-.1.1-.1.2-.2.3-.1.2-.2.3-.3.5-.1.1-.1.2-.2.3-.1.2-.2.3-.3.5 0 .1-.1.2-.1.3-.1.2-.2.3-.2.5 0 .1-.1.2-.1.3-.1.2-.2.3-.2.4s-.1.2-.1.2c-.1.1-.1.3-.2.4 0 .1-.1.2-.1.2-.1.1-.1.3-.2.4 0 .1-.1.1-.1.2-.1.1-.1.3-.2.4 0 .1-.1.1-.1.2-.1.1-.1.2-.2.3 0 .1-.1.1-.1.2s-.1.1-.1.2c-.6-.1-1.1 0-1.5.2l-50.4-83.8c.4-.3.7-.7.9-1.1l83.7 22.5v.4c-.3.7.1 1.4.8 1.9zm-18.7 171.2-53.6 17.6c-.4-.9-1.2-1.5-2.2-1.5-.1 0-.2 0-.4 0l-11.4-48.2c.6-.2 1-.6 1.3-1.1l66.3 31.7c-.1.3-.2.6-.2.9.1.2.2.4.2.6zm-58 19.5-41.7 22.6-2 1.1c-.2-.3-.5-.6-.8-.8l21.9-48.8 11.5-25.7c.4.1.7.2 1.2.1l4.8 20.4 6.6 27.8c-1 .3-1.7 1.2-1.7 2.3 0 .4.1.7.2 1zm-177 49.7 43.2-27.6c.6.8 1.5 1.1 2.5.9l17.2 50.4c-.5.2-1 .6-1.2 1.2l-61.5-23.1c.1-.2.1-.4.1-.7 0-.4-.1-.8-.3-1.1zm-68.9-96.1 46.6-37.6c.4.4.9.7 1.5.7l-2 58.6c-.8 0-1.6.5-2 1.2l-26.2-12.4-17.5-8.3c.1-.3.2-.6.2-.8-.2-.5-.4-.9-.6-1.4zm-59.6-100.1 96.7-11.5c0 .2.1.4.2.6l-45.9 29.6c-.5-.6-1.2-.9-1.9-.9-.9 0-1.8.5-2.2 1.4l-13.8-5.5-33.2-13c.1-.2.1-.4.1-.7zm51.4-56.7 78-29.5c.2.5.6.8 1 1.1l-30.6 70.8c-.8-.3-1.8-.1-2.4.5l-3.9-3.4-42.4-37.5c.3-.4.5-.9.5-1.4-.1-.2-.1-.4-.2-.6zm243.1-10.9-3.3 15-8.5 38.2c-.7-.1-1.3.1-1.9.5l-20.7-21.4-48.8-50.4c.2-.3.4-.6.5-.9l81 16.4v.3c0 1 .7 1.9 1.7 2.3zm51.3 86.3-40 15.6-43.8 17.1c-.2-.5-.7-.9-1.2-1.1l13-37.1 8-22.7c1.1.3 2.2-.2 2.7-1.2l47.9 21.8 13.6 6.2c-.1.3-.1.5-.1.8-.2.1-.1.3-.1.6zm-151.3.9c0 .2-.1.4-.1.6 0 .3 0 .5.1.8l-13.3 6.1-71.2 32.6c-.4-.8-1.2-1.2-2.1-1.2h-.1l-3.2-26.2-5.1-41.9c.8-.2 1.4-.7 1.7-1.4zm-93.1-31c0-.2.1-.3.1-.5l33.4-1.6 7.3-.4c.2 1.2 1.2 2.1 2.4 2.1.7 0 1.4-.3 1.9-.9l41.6 27.4 6.7 4.4c0 .1-.1.1-.1.2zm8.6 73.3 44.9 18.3 39.6 16.1c-.1.2-.1.5-.1.7 0 1 .6 1.8 1.5 2.2l-21.6 65.5c-.6-.2-1.1-.1-1.7.2l-32-51.6-31.3-50.5c.3-.2.6-.5.7-.9zm84.7 34.1-45-18.3-39.6-16.1c.1-.2.1-.5.1-.7 0-.3 0-.5-.1-.8l84.6-38.7c.4.7 1.1 1.2 1.9 1.2v72.1c-.8 0-1.5.5-1.9 1.3zm.2-77.3-48.3-31.8c.2-.4.3-.7.3-1.2 0-.1 0-.2 0-.3l60.3-11.8c.2.7.8 1.3 1.5 1.6l-4.4 16.5-7 26.1c-.2 0-.3 0-.4 0-.8 0-1.5.3-2 .9zm2.1 3.9c.8-.1 1.4-.5 1.8-1.1l58.7 30c-.1.3-.2.6-.2.9 0 .4.1.9.3 1.2l-59.1 41.9c-.4-.5-1-.8-1.6-.9v-72zm61 31.4c.5.5 1.1.9 1.8.9.5 0 1-.2 1.4-.5l16.1 18.3 16.1 18.3c-.4.4-.7 1-.7 1.6l-93.6 4.2c0-.3-.1-.6-.3-.9zm23.4-63.8-10.4 29.9-10.5 30c-.6-.2-1.2-.1-1.7.2l-47.7-75.2c.4-.3.7-.8.9-1.2l15.5 3.2 52.7 10.8v.3c-.3.8.3 1.6 1.2 2zm-16.8-20.2 15.9 16.4c-.2.3-.4.6-.5.9l-15.5-3.2-52.7-10.8c0-.1 0-.2 0-.3 0-1.3-1-2.3-2.2-2.4v-55.6c.5 0 .9-.2 1.3-.5zm-54 5.3 4.2 6.6 43.6 68.6c-.2.2-.4.4-.6.6l-29.4-15-29.4-15c.1-.3.2-.6.2-.9 0-1-.6-1.9-1.6-2.3l5.4-20.2 6-22.2c.6.1 1.1 0 1.6-.2zm-1.3-4.6c-.6.1-1.2.3-1.6.8l-34.1-26.4-40-31c.2-.3.4-.7.4-1.1h73.1c.1 1.2 1 2.1 2.2 2.2zm-73.4-54.3 71.5 55.5c-.3.4-.4.8-.4 1.3v.3l-60.3 11.8c-.3-1-1.2-1.8-2.3-1.8-.1 0-.2 0-.2 0l-4.9-27.6-7.2-40.7c.4-.1.8-.4 1.2-.7zm2.3 34.9 5.7 32.2c-1 .3-1.8 1.2-1.8 2.2l-40.7 2c-.1-.8-.6-1.4-1.2-1.8l30.7-70.8c.3.1.7.1 1 .1zm-39.1 39.1 3 24.4 5.3 43.6c-.5.1-1 .4-1.4.8l-54.8-37.9c.2-.4.3-.8.3-1.2s-.1-.8-.3-1.1l36.8-23.7 9.1-5.9c.5.7 1.2 1.1 2 1zm-49.9 32.2 2 18.8 6 57.7c-1.1.2-1.9 1.1-2 2.3l-53 2c-.1-.7-.4-1.3-1-1.7l8.2-13.9 38.6-65.4c.4.1.8.2 1.2.2zm6.6 59.5-6.2-59.5c.6-.1 1.1-.4 1.4-.8l54.8 37.9c-.2.4-.3.8-.3 1.2 0 .5.1.9.4 1.3l-26.4 21.3-20.2 16.3c-.5-.5-1.1-.8-1.7-.8zm52.2-18.8c.3 0 .7-.1 1-.3l32 51.6 31.3 50.6c-.2.1-.3.3-.5.5l-64-40.3c.2-.3.3-.7.3-1.1 0-1.2-.9-2.3-2.1-2.4zm-.4 62.4 45.9 28.9 18 11.4c-.2.3-.3.7-.3 1.1s.1.8.3 1.1l-43.2 27.6c-.5-.6-1.2-1-1.9-1-.1 0-.3 0-.5.1l-17.8-62.6-1.7-5.8c.5-.2.9-.5 1.2-.8zm74.4 65.3-7.4-21.7c.8-.3 1.3-1 1.4-1.9l81.3 4.2c0 .4.1.8.4 1.2l-63.6 47.6c-.5-.5-1.1-.8-1.8-.8-.2 0-.4 0-.6.1zm75.4-19.8-81.3-4.2c0-.9-.6-1.8-1.5-2.1l21.6-65.5c.7.2 1.4 0 2-.4l9.6 11.3 50.3 59.5c-.4.4-.6.9-.7 1.4zm-32.1-40.8-26.7-31.6c.4-.4.7-1 .7-1.6l93.6-4.2c.1.8.5 1.4 1.2 1.8l-30 66.9-3.4 7.6c-.7-.3-1.6-.1-2.2.3zm68.5-39.7-32.2-36.6c.4-.5.7-1 .7-1.7 0-.2 0-.5-.1-.7l65-25.3 18.9-7.4c.1.3.4.6.6.8l-5.5 7.7-44.7 63c-.9-.4-1.9-.4-2.7.2zm52.2-73.9-47.9-21.8-13.6-6.2c.1-.3.1-.5.1-.8 0-1.1-.7-2-1.7-2.3l5-22.7 6.8-30.6c.5.1 1 0 1.4-.2l50.4 83.8c-.1.2-.3.5-.5.8zm-46.3-143.9c.6 0 1.1-.2 1.5-.6l80.5 79.9c-.2.2-.3.5-.4.7l-83.7-22.5c0-.2 0-.3 0-.4 0-1.2-.9-2.2-2-2.4l1.4-18.8zm-.4 0-2.4 32.3-1.7 22.4c-1.1 0-2 .7-2.3 1.7l-81-16.4c0-.1 0-.2 0-.3 0-.3-.1-.6-.2-.8l85.8-40.2c.4.7 1.1 1.2 1.8 1.3zm-98-29.7 96 26.8v.5c0 .3.1.6.2.8l-85.8 40.2c-.4-.7-1.2-1.2-2.1-1.2-.1 0-.1 0-.2 0l-9.8-65.6c.8-.2 1.4-.7 1.7-1.5zm-3.8 1.1c.5.4 1.1.6 1.7.5l9.8 65.6c-1 .2-1.8 1.1-1.9 2.1h-73.1c0-.5-.3-1-.6-1.4l55.2-57.6zm-109.3 30.6c0-.2 0-.3-.1-.5l108.7-31.2c.1.3.3.5.4.7l-56.2 58.8-7.9 8.2c-.4-.4-1-.5-1.5-.5-.6 0-1.3.3-1.7.7l-37.8-31.2-4.4-3.6c.3-.4.5-.9.5-1.4zm-3.4 2.2c.9.4 2 .2 2.7-.5l33 27.2 9.1 7.5c-.3.4-.4.9-.4 1.4 0 .2 0 .4.1.7l-22.4 8.5-55.6 21c-.2-.4-.5-.7-.9-1zm-37.2 68.7c.4.3.9.5 1.5.5s1.2-.2 1.7-.7l1.7 1.5 44.6 39.4c-.3.4-.5.9-.5 1.4v.1l-64.4 7.7-32.2 3.8c-.1-.4-.3-.8-.6-1.1zm-47.6 155.5-2.1-98.8c.8-.1 1.5-.6 1.9-1.3l23.5 9.2 23.5 9.2c-.1.2-.1.5-.1.7 0 .8.4 1.5 1 2l-14.3 24.3-32.5 55.1c-.3-.3-.6-.4-.9-.4zm45.9 83.3-44.7-78.9c.6-.4 1-1.1 1.1-1.9l52.9-2c.1 1 .9 1.8 1.9 2.1l-10.1 80.6c-.4-.1-.7 0-1.1.1zm1.5-.1 7-56.4 3-24.2h.1c.9 0 1.7-.5 2.1-1.2l7.1 3.3 36.7 17.4c-.1.3-.2.6-.2.8 0 .6.2 1.2.6 1.6l-55.5 59.1c-.2-.2-.5-.4-.9-.4zm56.8-58.4c.4.3 1 .5 1.5.5.1 0 .3 0 .5-.1l16.9 59.6 2.5 8.8c-.8.3-1.3.9-1.5 1.7l-74.7-9.8v-.1c0-.6-.2-1.2-.6-1.6zm-2.4 112.1-53-49.8c.2-.3.4-.6.5-1l74.7 9.8v.1c0 .8.4 1.6 1.1 2l-20.7 38.4c-.9-.4-1.9-.2-2.6.5zm3-.3 20.7-38.4c.3.1.6.2 1 .2.9 0 1.8-.5 2.2-1.4l15.3 5.7 46.2 17.3c-.1.2-.1.4-.1.7v.3l-9.5 1.9-74.8 15.1c-.2-.6-.5-1.1-1-1.4zm119.9 22-118.8-19.7c0-.1 0-.1 0-.2s0-.2 0-.3l9.5-1.9 74.8-15.1c.3 1 1.2 1.7 2.3 1.7.5 0 1-.2 1.5-.5l31.4 34.9c-.4.3-.6.7-.7 1.1zm.9-1.4-31.4-34.8c.4-.4.7-1 .7-1.6 0-.5-.1-.9-.4-1.3l50.2-37.6 13.4-10c.2.2.5.4.8.6l-19.8 53.6-11.4 30.9c-.8-.4-1.6-.2-2.1.2zm107.4-44-103.8 44.8c-.2-.5-.6-.8-1.1-1l31.1-84.4c1 .3 2.1-.1 2.6-1l71.3 39.9c-.1.3-.2.7-.2 1 0 .2 0 .5.1.7zm.3-2.1-29.2-16.3-42.1-23.6c.1-.3.2-.7.2-1s-.1-.7-.2-1l43.7-23.7c.6.9 1.7 1.3 2.7 1l6 14.7 19.8 49c-.4.3-.7.6-.9.9zm2.6-.9c-.5-.1-.9-.1-1.3 0l-25.8-63.8c.8-.4 1.3-1.2 1.3-2.2 0-.2 0-.4-.1-.6l53.6-17.6c.2.6.7 1 1.2 1.3zm27.9-86.3-66.3-31.7c.1-.3.2-.6.2-.9 0-.7-.3-1.4-.9-1.8l50.1-70.7c.4.3.9.4 1.4.3l17 103.7c-.7.2-1.2.6-1.5 1.1zm40.7-39.8-37.1 39.2c-.4-.3-1-.5-1.5-.5-.1 0-.1 0-.2 0l-16.9-103.7c.4-.1.8-.3 1.1-.7 0 0 0 0 .1.1l.3.3s.1.1.1.1l.4.4s.1.1.1.1c.1.1.3.3.4.5 0 0 0 0 .1.1l.5.5s0 0 .1.1c.2.2.4.4.5.6 0 0 .1.1.1.1l.6.6c.2.2.4.4.6.7 9.3 10.1 27.9 31.6 40.2 45.9.8 1 1.6 1.9 2.4 2.8l.3.3c.2.2.4.4.6.7.1.1.1.2.2.3.2.2.3.4.5.6.4.5.8.9 1.2 1.4.2.3.5.5.7.8 2 2.4 3.7 4.3 4.8 5.6-.5.5-.7 1.1-.7 1.7-.1.4.1.9.5 1.4zm.4-3.6c-2.4-2.9-7.7-9.1-14.2-16.6 0 0-.1-.1-.1-.1-1.6-1.9-3.3-3.9-5.1-5.9 0 0 0 0-.1-.1-.9-1.1-1.9-2.1-2.8-3.2-.2-.2-.3-.4-.5-.5 0-.1-.1-.1-.1-.2-.3-.4-.6-.7-.9-1.1-1.7-1.9-3.3-3.9-5-5.8-.7-.8-1.4-1.6-2.1-2.4-.2-.2-.3-.4-.5-.6-.1-.1-.1-.1-.2-.2-1-1.2-2-2.3-3.1-3.5-.1-.1-.2-.3-.4-.4-.2-.3-.5-.6-.7-.8-.3-.4-.7-.8-1-1.1-.2-.2-.3-.3-.5-.5s-.4-.5-.6-.7-.3-.4-.5-.6-.3-.4-.5-.5c-.2-.2-.4-.4-.5-.6-.2-.2-.3-.4-.5-.6-.1-.1-.2-.3-.4-.4-.2-.2-.4-.5-.6-.7-.1-.2-.3-.3-.4-.5-.2-.2-.4-.4-.5-.6s-.3-.3-.4-.5c-.2-.2-.4-.4-.6-.6-.1-.1-.2-.3-.4-.4-.2-.2-.4-.4-.6-.6-.1-.1-.3-.3-.4-.4-.2-.2-.4-.4-.5-.6-.1-.1-.2-.2-.3-.3-.2-.2-.4-.4-.6-.7-.1-.1-.2-.3-.3-.4-.2-.2-.3-.4-.5-.6-.1-.1-.2-.3-.4-.4-.2-.2-.3-.4-.5-.5-.1-.1-.2-.2-.3-.4-.2-.2-.3-.4-.5-.5-.1-.1-.2-.2-.3-.3-.2-.2-.3-.4-.5-.5-.1-.1-.2-.2-.3-.3-.2-.2-.3-.3-.5-.5-.1-.1-.2-.2-.3-.3-.2-.2-.3-.3-.5-.5-.1-.1-.2-.2-.3-.3-.1-.2-.3-.3-.4-.5-.1-.1-.2-.2-.3-.3s-.3-.3-.4-.4-.2-.2-.3-.3-.3-.3-.4-.4-.2-.2-.2-.2c-.1-.1-.2-.3-.4-.4-.1-.1-.2-.2-.2-.2-.1-.1-.2-.2-.3-.3s-.2-.2-.2-.2c-.1-.1-.2-.2-.3-.3s-.1-.1-.2-.2-.2-.2-.3-.3-.1-.1-.2-.2-.1-.1-.2-.2c.3-.4.4-.9.4-1.4 0-1-.6-1.9-1.5-2.2 0-.1.1-.1.1-.2s0-.1.1-.2.1-.2.2-.4c0-.1.1-.1.1-.2.1-.1.1-.3.2-.4 0-.1.1-.1.1-.2.1-.1.1-.3.2-.4 0-.1.1-.1.1-.2.1-.2.2-.3.2-.5 0-.1.1-.1.1-.2.1-.2.2-.3.3-.5 0-.1.1-.1.1-.2.1-.2.2-.4.3-.5 0-.1.1-.1.1-.2.1-.2.2-.4.3-.6 0-.1.1-.2.1-.2.1-.2.2-.4.3-.6 0-.1.1-.2.1-.3.1-.2.2-.4.3-.6 0-.1.1-.2.1-.2.1-.2.2-.4.3-.6 0-.1.1-.2.1-.2.1-.2.2-.4.4-.7 0-.1.1-.1.1-.2.1-.2.3-.5.4-.7 0-.1.1-.1.1-.2.1-.2.3-.5.4-.7 0-.1.1-.2.1-.3.1-.2.3-.5.4-.7 0-.1.1-.2.1-.3.1-.3.3-.5.4-.8 0-.1.1-.2.1-.2.1-.3.3-.5.4-.8 0-.1.1-.1.1-.2.1-.2.3-.5.4-.7.1-.1.1-.2.2-.3.1-.2.3-.5.4-.7.1-.1.1-.2.2-.3.2-.3.3-.6.5-.8 0-.1.1-.1.1-.2.2-.3.3-.6.5-.8.1-.1.1-.2.2-.3.1-.2.3-.5.4-.7s.2-.3.3-.5.2-.4.3-.6.2-.4.3-.5c.1-.2.3-.5.4-.7.1-.1.1-.3.2-.4.2-.3.3-.5.5-.8.1-.1.1-.2.2-.4.2-.3.3-.6.5-.9 0-.1.1-.2.1-.3.1-.2.2-.4.4-.6.1-.2.2-.4.3-.6 0 0 0-.1.1-.1.4-.7.8-1.5 1.2-2.2 0-.1.1-.1.1-.2.4-.7.8-1.4 1.2-2.2 0 0 .1-.1.1-.1 7.4-12.9 14.9-25.9 17.5-30.4.3.2.7.2 1 .2h.2l21.9 125.3c.2-.3-.1-.1-.3 0z"/><circle cx="82.6" cy="179.8" r="2.1"/><circle cx="192.4" cy="106.2" r="2.1"/><circle cx="340.1" cy="125.9" r="2.1"/><circle cx="400.1" cy="179.8" r="2.1"/><circle cx="388.8" cy="95" r="2.1"/><circle cx="304.6" cy="91.3" r="2.1"/><circle cx="370.1" cy="47.5" r="2.1"/><circle cx="248.3" cy="78.7" r="2.1"/><circle cx="133.5" cy="127.3" r="2.1"/><circle cx="56.8" cy="143.5" r="2.1"/><circle cx="458.1" cy="169.5" r="2.1"/><circle cx="448.9" cy="99.6" r="2.1"/><circle cx="430.3" cy="28.3" r="2.1"/><circle cx="338.8" cy="32.7" r="2.1"/><circle cx="281" cy="56.3" r="2.1"/><circle cx="209.2" cy="56.3" r="2.1"/><circle cx="141.6" cy="101.2" r="2.1"/><circle cx="86.9" cy="86.3" r="2.1"/><circle cx="50.1" cy="52.1" r="2.1"/><circle cx="138.1" cy="43.3" r="2.1"/><circle cx="245.3" cy="10.4" r="2.1"/><circle cx="309.3" cy="22.5" r="2.1"/><circle cx="386.6" cy="5.8" r="2.1"/><circle cx="14.4" cy="119.1" r="2.1"/><circle cx="476.2" cy="228.5" r="2.1"/><circle cx="482.2" cy="354.7" r="2.1"/><circle cx="471.9" cy="445" r="2.1"/><circle cx="437.9" cy="511.5" r="2.1"/><circle cx="387.6" cy="559.7" r="2.1"/><circle cx="476.2" cy="557.6" r="2.1"/><circle cx="51.2" cy="243.8" r="2.1"/><circle cx="16.6" cy="354.7" r="2.1"/><circle cx="38.4" cy="469.3" r="2.1"/><circle cx="21" cy="525.1" r="2.1"/><circle cx="94.1" cy="548.3" r="2.1"/><circle cx="5.7" cy="192.3" r="2.1"/><path d="m94.3 548.5h-.3l-73.1-23.2.2-.4 72.8 23.1 6.3-57.7h.4z"/><path d="m94 545.7h63.3v.4h-63.3z" transform="matrix(.9971 -.07624798 .07624798 .9971 -41.2551 11.1673)"/><path d="m280.7 564v-.4l106.7-4 1.1-42.6h.2l49.1-5.6 34.2-67v.8l4.3 112.5.2.3h-.4l-88.5 2.1zm157.2-52.3-49.8 47.8 87.6-2.1zm-48.9 5.6-1.1 42 49.5-47.5zm49.2-5.8 37.7 45.5-4.2-111.2-33.4 65.4h.2z"/><path d="m471.8 445.2-52.5-15.5.1-.3 52.5 15.5z"/><path d="m436.9 257.1-37.3-77.8.6.4 76.1 48.7-.2.3-75.5-48.3 36.7 76.5z"/><path d="m400.7 180.1-47.7-6.1v-.1l-13.2-48.6zm-47.4-6.5 46.2 5.9-59-53z"/><path d="m51.3 244.2-.2-.2-45.8-51.8.4-.1 77.3-12.5zm-45.2-51.8 45.1 51 31-63.4z"/><path d="m388.9 517.2-.3-.3 83-72-11.8-57.9.1-.1c8.8-11.9 21.7-30.1 22.1-32.2v-.1c-.1-2-29.5-64.7-45.1-97.7l-.1-.2.1-.1 39.3-28.7v.4l6 126.2v.1l-10.1 90.4v.1l-.1.1zm71.3-130.1 11.6 56.6 10-87.7c-3.2 6-19.3 28.1-21.6 31.1zm-22.8-130.1c2.5 5.3 39.9 84.8 44.6 96.3l-6-124.5z"/><path d="m476 228.6-18-58.9-58 10.4v-.2c-.5-3.3-10.8-80.2-11.3-84.6h-.2l.1-.2v-.1h.1l41.2-66.3-59.7 19-65.5 43.9-.2-.3 65.5-43.9 60.7-19.4-.3.5-41.4 66.5 60 4.6 9.2 70 18.1 59.1zm-87-133.1c.8 6.5 10.7 79.6 11.3 84.1l57.4-10.3c-22.6-24.5-64.4-69.8-68.7-73.8zm.3-.2c1.7 1.5 8.1 8.3 34.5 36.7 15.6 16.8 31.2 33.8 34 36.8l-9.1-69z"/><path d="m20.7 525.5 17.6-56.2 14.9-62-36.8-52.5.1-.1 34.5-51.6v-59.4l51.5 3.5-20.2-67.4 57.2-2.2 52.9-71.6.2.1 60 39.4 87.4-19.7 30.1-78.8 18.9 48.1-48.8 31-87.7 19.7h-.1l-59.9-39.3-52.8 71.4h-.1l-56.8 2.1 20.3 67.5-51.7-3.5v59.1.1l-34.6 51.5 36.7 52.5v.1l-14.8 61.9 62.3 21.1zm17.9-55.9-17.2 55.2 78.5-34.4zm331.5-421.6-29.6 77.4 48-30.4z"/><path d="m252.4 146.1v-.5l-4.3-67.2 56.5 12.6.1-.1 35.6 34.7-.3.4-35.4-34.4zm-3.9-67.1 4.2 66.2 51.5-53.7z"/><path d="m82.5 180.1-.1-.2-25.9-36.6.3-.1 77.4-16.3zm-25.4-36.5 25.5 35.9 50.3-51.9z"/><path d="m139.4 178.6-6.1-51.4.2-.1 58.9-21.1 55.8-27.5 32.8-22.5.1.2 23.5 34.8 34.1-58.5h.2l31.3 14.8-.2.3-31.1-14.6-34.3 58.7-23.7-35.1-32.5 22.3-55.9 27.5-58.8 21.1 6.1 51.1z"/><path d="m448.8 99.7-18.6-71.2-91.4 4.4-57.8 23.6h-72l39.4 22-.2.4-40.7-22.8h73.4l57.8-23.6h.1l91.7-4.4v.1l18.6 71.4z"/><path d="m38.2 469.4-21.8-114.6-10.9-162.6h.1l51-48.9 30.2-57.3 46.6 41 8-26 50.9 5 15.8-49.8.4.1-15.9 50.1h-.2l-50.7-5-8.1 26.3-46.7-41.1-29.9 57h-.1l-51 48.8 10.9 162.3 21.8 114.6z"/><path d="m5.9 192.3h-.4l8.8-73.5 42.6 24.5-.2.3-42.1-24.2z"/><path d="m14.6 119.2-.4-.2 35.8-67.2.1.1c3.9-.6 84.4-8.5 87.9-8.8l.6-.1-51.7 43.6-.1-.1-36.5-34zm36-66.9 36.3 33.8 50.6-42.5c-7.7.7-80.6 7.9-86.9 8.7z"/><path d="m14.5 119.3-.2-.4 72.5-32.8 54.5 14.8-3.5-57.9h.3l71.6 13.6-68.1 44.7h-.1l-54.6-14.8zm123.8-75.8 3.5 57.3 66.9-43.9z"/><path d="m209.3 56.9-.3-.2 36.3-46.6.1.2 35.6 45.7 28.2-33.8.2.1 29.4 10.2 47.8-27 .1.1 43.7 22.5-.2.3-43.6-22.4-47.8 26.9-29.4-10.2-28.4 33.9-35.7-45.9z"/><path d="m138.1 43.5-.1-.4 107.3-32.9 64 12.1 77.3-16.7.1.4-77.4 16.7-64-12.1z"/><path d="m541.7 184.7h.2l22 125.7c-.9.3-1.6 1.1-1.6 2.1 0 1.2 1 2.2 2.2 2.2.5 0 1-.2 1.4-.5l80.8 80.2c-.3.4-.5.9-.5 1.4 0 1.2 1 2.2 2.2 2.2.9 0 1.7-.6 2.1-1.4l96.4 26.9v.4c0 1.2 1 2.2 2.2 2.2s2.2-1 2.2-2.2c0-.1 0-.3-.1-.4l109.1-31.3c.3.8 1.1 1.4 2 1.4 1.2 0 2.2-1 2.2-2.2 0-.8-.4-1.4-1-1.8l34.6-65.2c.3.1.5.2.8.2 1.2 0 2.2-1 2.2-2.2 0-.6-.2-1.1-.6-1.5l48.5-52.9c.4.3.8.5 1.3.5 1.2 0 2.2-1 2.2-2.2s-.9-2.1-2.1-2.2l-2.1-99.2c1.1-.1 2-1 2-2.2s-1-2.2-2.2-2.2c-.3 0-.6.1-.9.2l-44.9-79.3c.6-.4 1-1 1-1.8 0-1.2-1-2.2-2.2-2.2-.6 0-1.1.2-1.5.6l-53.3-50.1c.3-.4.5-.8.5-1.4 0-1.2-1-2.2-2.2-2.2-1 0-1.9.7-2.1 1.7l-119.3-20c0-.1 0-.1 0-.2 0-1.2-1-2.2-2.2-2.2s-2.2 1-2.2 2.2c0 .2 0 .5.1.7l-104.2 44.9c-.4-.7-1.1-1.2-1.9-1.2-1.2 0-2.2 1-2.2 2.2 0 .8.4 1.4 1 1.8v.1c.3.1.4.6.1.8l-.5 1.5c0 .1 0 .2-.1.3-.2.5-.3 1-.6 1.5l-27.7 79c-1.6-.4-3 .8-3 2.3 0 .6.2 1.2.6 1.6l-37.1 39.2c-.1 0-.1-.1-.2-.1v-.1c-.1 0-.3 0-.4-.1l-.1.2c-.3-.1-.6-.2-.9-.2-1.2 0-2.2 1-2.2 2.2 0 1.3 1 2.3 2.2 2.3zm24.1 125.8c2.4-4.2 9.3-15.9 16.2-28.1 0 0 0 0 0-.1.3-.6.7-1.2 1-1.8.2-.3.4-.7.6-1 .3-.6.6-1.1.9-1.7.1-.2.2-.4.3-.6.4-.6.7-1.3 1.1-1.9.9-1.5 1.7-3 2.5-4.5.1-.1.1-.2.2-.3.2-.3.4-.7.6-1 0 0 0-.1.1-.1.2-.3.3-.5.4-.8.1-.1.1-.2.2-.3.1-.2.2-.4.3-.6s.2-.3.3-.5.2-.4.3-.5c.1-.2.2-.4.3-.5.1-.2.2-.4.3-.5.1-.2.2-.4.3-.6s.2-.4.3-.6c.1-.1.1-.3.2-.4.1-.2.2-.5.4-.7.1-.1.1-.2.2-.4s.2-.4.3-.6c.1-.1.1-.3.2-.4.1-.2.2-.4.3-.6.1-.1.2-.3.2-.4.1-.2.2-.3.3-.5s.2-.3.3-.5c.1-.1.1-.2.2-.4s.2-.4.3-.6c.1-.1.1-.2.2-.4s.2-.4.3-.5.1-.3.2-.4.2-.3.2-.4c.1-.1.1-.3.2-.4.1-.2.2-.3.3-.5.1-.1.1-.2.2-.3.1-.2.2-.3.3-.5.1-.1.1-.2.2-.3.1-.2.2-.3.3-.5 0-.1.1-.2.1-.3.1-.2.2-.3.2-.5 0-.1.1-.2.1-.3.1-.2.2-.3.2-.4s.1-.2.1-.2c.1-.1.1-.3.2-.4 0-.1.1-.2.1-.2.1-.1.1-.3.2-.4 0-.1.1-.1.1-.2.1-.1.1-.3.2-.4 0-.1.1-.1.1-.2.1-.1.1-.2.2-.3 0-.1.1-.1.1-.2s.1-.1.1-.2c.6.1 1.1 0 1.5-.2l50.4 83.8c-.4.3-.7.7-.9 1.1l-83.7-22.5c0-.2 0-.3 0-.4.2-.7-.1-1.4-.8-1.9zm18.7-171.2 53.6-17.6c.4.9 1.2 1.5 2.2 1.5h.4l11.4 48.2c-.6.2-1 .6-1.3 1.1l-66.3-31.7c.1-.3.2-.6.2-.9-.2-.2-.2-.4-.2-.6zm58-19.5 41.7-22.6 2-1.1c.2.3.5.6.8.8l-21.9 48.8-11.5 25.7c-.4-.1-.7-.2-1.2-.1l-4.8-20.4-6.6-27.9c1-.3 1.7-1.2 1.7-2.3 0-.3-.1-.6-.2-.9zm177-49.7-43.2 27.6c-.6-.8-1.5-1.1-2.5-.9l-17.2-50.4c.5-.2 1-.6 1.2-1.2l61.5 23.1c-.1.2-.1.4-.1.7 0 .4.1.8.3 1.1zm68.9 96-46.6 37.6c-.4-.4-.9-.7-1.5-.7l2-58.6c.8 0 1.6-.5 2-1.2l26.2 12.4 17.5 8.3c-.1.3-.2.6-.2.8.2.6.3 1 .6 1.4zm59.6 100.2-96.7 11.5c0-.2-.1-.4-.2-.6l45.9-29.6c.5.6 1.2.9 1.9.9.9 0 1.8-.5 2.2-1.4l13.8 5.4 33.2 13c-.1.2-.1.5-.1.8 0-.1 0 0 0 0zm-51.5 56.7-78 29.5c-.2-.5-.6-.8-1-1.1l30.7-70.8c.8.3 1.8.1 2.4-.5l3.9 3.4 42.4 37.5c-.3.4-.5.9-.5 1.4 0 .2.1.4.1.6zm-243 10.9 3.3-15 8.5-38.2c.7.1 1.3-.1 1.9-.5l20.7 21.4 48.8 50.4c-.2.3-.4.6-.5.9l-81-16.4c0-.1 0-.2 0-.3 0-1-.7-2-1.7-2.3zm-51.4-86.3 40-15.6 43.8-17.1c.2.5.7.9 1.2 1.1l-13 37.1-8 22.7c-1.1-.3-2.2.2-2.7 1.2l-47.9-21.8-13.6-6.2c.1-.3.1-.5.1-.8.3-.1.2-.4.1-.6zm151.4-1c0-.2.1-.4.1-.6 0-.3 0-.5-.1-.8l13.3-6.1 71.3-32.6c.4.8 1.2 1.2 2.1 1.2h.1l3.2 26.2 5.1 41.9c-.8.2-1.4.7-1.7 1.4zm93.1 31.1c0 .2-.1.3-.1.5l-33.4 1.6-7.3.4c-.2-1.2-1.2-2.1-2.4-2.1-.7 0-1.4.3-1.9.9l-41.6-27.4-6.7-4.4c0-.1.1-.1.1-.2zm-8.6-73.4-45-18.3-39.6-16.1c.1-.2.1-.5.1-.7 0-1-.6-1.8-1.5-2.2l21.6-65.5c.6.2 1.1.1 1.7-.2l32 51.6 31.3 50.6c-.2.2-.5.5-.6.8zm-84.7-34 44.9 18.3 39.6 16.1c-.1.2-.1.5-.1.7 0 .3 0 .5.1.8l-84.6 38.7c-.4-.7-1.1-1.2-1.9-1.2v-72.1c.9 0 1.6-.5 2-1.3zm-.2 77.3 48.3 31.8c-.2.4-.3.7-.3 1.2v.3l-60.3 11.8c-.2-.7-.8-1.3-1.5-1.6l4.4-16.4 7-26.1h.4c.8-.1 1.5-.4 2-1zm-2.1-3.9c-.8.1-1.4.5-1.8 1.1l-58.7-30c.1-.3.2-.6.2-.9 0-.4-.1-.9-.3-1.2l59.1-41.9c.4.5 1 .8 1.6.9v72zm-61-31.4c-.5-.5-1.1-.9-1.8-.9-.5 0-1 .2-1.4.5l-16.1-18.3-16.1-18.3c.4-.4.7-1 .7-1.6l93.6-4.2c0 .3.1.6.3.9zm-23.4 63.8 10.4-29.9 10.5-30c.6.2 1.2.1 1.7-.2l47.7 75.2c-.4.3-.7.8-.9 1.2l-15.5-3.2-52.5-10.6c0-.1 0-.2 0-.3.1-1-.5-1.8-1.4-2.2zm16.7 20.2-15.9-16.4c.2-.3.4-.6.5-.9l15.5 3.2 52.7 10.8v.3c0 1.3 1 2.3 2.2 2.4v55.6c-.5 0-.9.2-1.3.5zm54.1-5.3-4.2-6.6-43.6-68.6c.2-.2.4-.4.6-.6l29.4 15 29.4 15c-.1.3-.2.6-.2.9 0 1 .6 1.9 1.6 2.3l-5.4 20.2-6 22.2c-.7-.1-1.2 0-1.6.2zm1.3 4.6c.6-.1 1.2-.3 1.6-.8l34.1 26.4 40 31c-.2.3-.4.7-.4 1.1h-73.1c-.1-1.2-1-2.1-2.2-2.2zm73.3 54.3-71.5-55.5c.3-.4.4-.8.4-1.3 0-.1 0-.2 0-.3l60.3-11.8c.3 1 1.2 1.8 2.3 1.8h.2l4.9 27.6 7.2 40.7c-.4.1-.8.4-1.2.7zm-2.2-34.9-5.7-32.2c1-.3 1.8-1.2 1.8-2.2l40.7-2c.1.8.6 1.4 1.2 1.8l-30.7 70.8c-.3-.1-.7-.1-1-.1zm39.1-39.1-3-24.4-5.3-43.6c.5-.1 1-.4 1.4-.8l54.8 37.9c-.2.4-.3.8-.3 1.2s.1.8.3 1.1l-36.8 23.7-9.1 5.9c-.5-.7-1.3-1.1-2-1zm49.9-32.2-2-18.8-6-57.7c1.1-.2 1.9-1.1 2-2.3l53-2c.1.7.4 1.3 1 1.7l-8.2 13.9-38.6 65.4c-.4-.2-.8-.3-1.2-.2zm-6.6-59.5 6.2 59.5c-.6.1-1.1.4-1.4.8l-54.8-37.9c.2-.4.3-.8.3-1.2 0-.5-.1-.9-.4-1.3l26.4-21.3 20.2-16.3c.5.5 1.1.8 1.7.8zm-52.2 18.8c-.3 0-.7.1-1 .3l-32-51.6-31.3-50.6c.2-.1.3-.3.5-.5l64 40.3c-.2.3-.3.7-.3 1.1 0 1.2.9 2.3 2.1 2.4zm.4-62.4-45.9-28.9-18-11.4c.2-.3.3-.7.3-1.1s-.1-.8-.3-1.1l43.2-27.6c.5.6 1.2 1 1.9 1 .1 0 .3 0 .5-.1l17.8 62.6 1.7 5.8c-.6.2-.9.4-1.2.8zm-74.4-65.3 7.4 21.7c-.8.3-1.3 1-1.4 1.9l-81.3-4.2c0-.4-.1-.8-.4-1.2l63.6-47.6c.5.5 1.1.8 1.8.8.2 0 .4 0 .6-.1zm-75.4 19.8 81.3 4.2c0 .9.6 1.8 1.5 2.1l-21.6 65.5c-.7-.2-1.4 0-2 .4l-9.6-11.3-50.3-59.5c.4-.4.6-.9.7-1.4zm32.1 40.8 26.7 31.6c-.4.4-.7 1-.7 1.6l-93.6 4.2c-.1-.8-.5-1.4-1.2-1.8l30-66.9 3.4-7.6c.7.3 1.6.1 2.2-.3zm-68.5 39.7 32.2 36.6c-.4.5-.7 1-.7 1.7 0 .2 0 .5.1.7l-65 25.3-18.9 7.4c-.1-.3-.4-.6-.6-.8l5.5-7.7 44.7-63c.8.4 1.9.4 2.7-.2zm-52.3 73.9 47.9 21.8 13.6 6.2c-.1.3-.1.5-.1.8 0 1.1.7 2 1.7 2.3l-5 22.7-6.8 30.6c-.5-.1-1 0-1.4.2l-50.4-83.8c.1-.3.4-.5.5-.8zm46.4 143.9c-.6 0-1.1.2-1.5.6l-80.5-80c.2-.2.3-.5.4-.7l83.7 22.5v.4c0 1.2.9 2.2 2 2.4l-1.4 18.8zm.4 0 2.4-32.3 1.7-22.4c1.1 0 2-.7 2.3-1.7l81 16.4v.3c0 .3.1.6.2.8l-85.8 40.2c-.4-.7-1.1-1.2-1.8-1.3zm98 29.7-96-26.8c0-.2 0-.3 0-.5 0-.3-.1-.6-.2-.8l85.8-40.2c.4.7 1.2 1.2 2.1 1.2h.2l9.8 65.6c-.8.1-1.4.7-1.7 1.5zm3.8-1.1c-.5-.4-1.1-.6-1.7-.5l-9.8-65.6c1-.2 1.8-1.1 1.9-2.1h73.1c0 .5.3 1 .6 1.4l-55.2 57.6zm109.3-30.6c0 .2 0 .3.1.5l-108.7 31.2c-.1-.3-.3-.5-.4-.7l56.2-58.7 7.9-8.2c.4.4 1 .5 1.5.5.6 0 1.3-.3 1.7-.7l37.8 31.2 4.4 3.6c-.3.3-.5.8-.5 1.3zm3.4-2.2c-.9-.4-2-.2-2.7.5l-33-27.2-9.1-7.5c.3-.4.4-.9.4-1.4 0-.2 0-.4-.1-.7l22.4-8.5 55.6-21c.2.4.5.7.9 1zm37.1-68.8c-.4-.3-.9-.5-1.5-.5s-1.2.2-1.7.7l-1.7-1.5-44.6-39.4c.3-.4.5-.9.5-1.4v-.1l64.4-7.7 32.2-3.8c.1.4.3.8.6 1.1zm47.7-155.4 2.1 98.8c-.8.1-1.5.6-1.9 1.3l-23.5-9.2-23.5-9.2c.1-.2.1-.5.1-.7 0-.8-.4-1.5-1-2l14.3-24.3 32.5-55.1c.3.3.6.4.9.4zm-45.9-83.3 44.7 78.9c-.6.4-1 1.1-1.1 1.9l-52.9 2c-.1-1-.9-1.8-1.9-2.1l10.1-80.5c.3 0 .7-.1 1.1-.2zm-1.5.1-7 56.4-3 24.2h-.1c-.9 0-1.7.5-2.1 1.2l-7.1-3.3-36.7-17.4c.1-.3.2-.6.2-.8 0-.6-.2-1.2-.6-1.6l55.5-59.1c.2.2.5.3.9.4zm-56.8 58.4c-.4-.3-1-.5-1.5-.5-.1 0-.3 0-.5.1l-16.9-59.6-2.5-8.8c.8-.3 1.3-.9 1.5-1.7l74.7 9.8v.1c0 .6.2 1.2.6 1.6zm2.3-112.1 53 49.8c-.2.3-.4.6-.5 1l-74.6-9.8v-.1c0-.8-.4-1.6-1.1-2l20.7-38.4c.9.3 1.9.2 2.5-.5zm-2.9.3-20.7 38.4c-.3-.1-.6-.2-1-.2-.9 0-1.8.5-2.2 1.4l-15.3-5.7-46.2-17.3c.1-.2.1-.4.1-.7 0-.1 0-.2 0-.3l9.5-1.9 74.8-15.1c.2.6.5 1 1 1.4zm-119.9-22 118.8 19.7v.2.3l-9.5 1.9-74.8 15.1c-.3-1-1.2-1.7-2.3-1.7-.5 0-1 .2-1.5.5l-31.3-34.9c.3-.3.5-.7.6-1.1zm-.9 1.3 31.4 34.9c-.4.4-.7 1-.7 1.6 0 .5.1.9.4 1.3l-50.2 37.6-13.4 10c-.2-.2-.5-.4-.8-.6l19.8-53.5 11.4-30.9c.8.3 1.5.1 2.1-.4zm-107.4 44 103.8-44.7c.2.5.6.8 1.1 1l-31.1 84.4c-1-.3-2.1.1-2.6 1l-71.3-39.9c.1-.3.2-.7.2-1s0-.5-.1-.8zm-.3 2.2 29.2 16.3 42.1 23.6c-.1.3-.2.7-.2 1s.1.7.2 1l-43.7 23.7c-.6-.9-1.7-1.3-2.7-1l-6-14.7-19.8-49c.4-.3.7-.6.9-.9zm-2.6.9c.5.1.9.1 1.3 0l25.8 63.8c-.8.4-1.3 1.2-1.3 2.2 0 .2 0 .4.1.6l-53.6 17.6c-.2-.6-.7-1-1.2-1.3zm-27.9 86.3 66.3 31.7c-.1.3-.2.6-.2.9 0 .7.3 1.4.9 1.8l-50.1 70.7c-.4-.3-.9-.4-1.4-.3l-16.9-103.7c.5-.2 1.1-.6 1.4-1.1zm-40.7 39.8 37.1-39.2c.4.3 1 .5 1.5.5h.2l17 103.8c-.4.1-.8.3-1.1.7 0 0 0 0-.1-.1s-.2-.2-.3-.3c0 0-.1-.1-.1-.1-.1-.1-.3-.3-.4-.4 0 0-.1-.1-.1-.1-.1-.1-.3-.3-.4-.5 0 0 0 0-.1-.1-.2-.2-.3-.3-.5-.5 0 0 0 0-.1-.1-.2-.2-.4-.4-.5-.6 0 0-.1-.1-.1-.1-.2-.2-.4-.4-.6-.6s-.4-.4-.6-.7c-9.3-10.1-27.9-31.6-40.2-45.9-.8-1-1.6-1.9-2.4-2.8-.1-.1-.2-.2-.3-.3-.2-.2-.4-.4-.6-.7-.1-.1-.1-.2-.2-.3-.2-.2-.3-.4-.5-.6-.4-.5-.8-.9-1.2-1.4-.2-.3-.5-.5-.7-.8-2-2.4-3.7-4.3-4.8-5.6.5-.5.7-1.1.7-1.7 0-.5-.2-1.1-.6-1.5zm-.4 3.6c2.4 2.9 7.7 9.1 14.2 16.6 0 0 .1.1.1.1 1.6 1.9 3.3 3.9 5.1 5.9 0 0 0 0 .1.1.9 1.1 1.9 2.1 2.8 3.2.2.2.3.4.5.5 0 .1.1.1.1.2.3.4.6.7.9 1.1 1.7 1.9 3.3 3.9 5 5.8.7.8 1.4 1.6 2.1 2.4.2.2.3.4.5.6.1.1.1.1.2.2 1 1.2 2 2.3 3.1 3.5.1.1.2.3.4.4.2.3.5.6.7.8.3.4.7.8 1 1.1.2.2.3.3.5.5s.4.5.6.7.3.4.5.6.3.4.5.5c.2.2.4.4.5.6.2.2.3.4.5.6.1.1.2.3.4.4.2.2.4.5.6.7.1.2.3.3.4.5.2.2.4.4.5.6s.3.3.4.5c.2.2.4.4.6.6.1.1.2.3.4.4.2.2.4.4.6.6.1.1.3.3.4.4.2.2.4.4.5.6.1.1.2.2.3.3.2.2.4.4.6.7.1.1.2.3.3.4.2.2.3.4.5.6.1.1.2.3.4.4.2.2.3.4.5.5.1.1.2.2.3.4.2.2.3.4.5.5.1.1.2.2.3.3.2.2.3.4.5.5.1.1.2.2.3.3.2.2.3.3.5.5.1.1.2.2.3.3.2.2.3.3.5.5.1.1.2.2.3.3.1.2.3.3.4.5.1.1.2.2.3.3s.3.3.4.4.2.2.3.3.3.3.4.4.2.2.2.2c.1.1.2.3.4.4.1.1.2.2.2.2.1.1.2.2.3.3s.2.2.2.2c.1.1.2.2.3.3s.1.1.2.2.2.2.3.3.1.1.2.2.1.1.2.2c-.3.4-.4.9-.4 1.4 0 1 .6 1.9 1.5 2.2 0 .1-.1.1-.1.2s0 .1-.1.2-.1.2-.2.4c0 .1-.1.1-.1.2-.1.1-.1.3-.2.4 0 .1-.1.1-.1.2-.1.1-.1.3-.2.4 0 .1-.1.1-.1.2-.1.2-.2.3-.2.5 0 .1-.1.1-.1.2-.1.2-.2.3-.3.5 0 .1-.1.1-.1.2-.1.2-.2.4-.3.5 0 .1-.1.1-.1.2-.1.2-.2.4-.3.6 0 .1-.1.2-.1.2-.1.2-.2.4-.3.6 0 .1-.1.2-.1.3-.1.2-.2.4-.3.6 0 .1-.1.2-.1.2-.1.2-.2.4-.3.6 0 .1-.1.2-.1.2-.1.2-.2.4-.4.7 0 .1-.1.1-.1.2-.1.2-.3.5-.4.7 0 .1-.1.1-.1.2-.1.2-.3.5-.4.7 0 .1-.1.2-.1.3-.1.2-.3.5-.4.7 0 .1-.1.2-.1.3-.1.3-.3.5-.4.8 0 .1-.1.2-.1.2-.1.3-.3.5-.4.8 0 .1-.1.1-.1.2-.1.2-.3.5-.4.7-.1.1-.1.2-.2.3-.1.2-.3.5-.4.7-.1.1-.1.2-.2.3-.2.3-.3.6-.5.8 0 .1-.1.1-.1.2-.2.3-.3.6-.5.8-.1.1-.1.2-.2.3-.1.2-.3.5-.4.7s-.2.3-.3.5-.2.4-.3.6-.2.4-.3.5c-.1.2-.3.5-.4.7-.1.1-.1.3-.2.4-.2.3-.3.5-.5.8-.1.1-.1.2-.2.4-.2.3-.3.6-.5.9 0 .1-.1.2-.1.3-.1.2-.2.4-.4.6-.1.2-.2.4-.3.6 0 0 0 .1-.1.1-.4.7-.8 1.5-1.2 2.2 0 .1-.1.1-.1.2-.4.7-.8 1.4-1.2 2.2 0 0-.1.1-.1.1-7.4 12.9-14.9 25.9-17.5 30.4-.3-.2-.7-.2-1-.2-.1 0-.1 0-.2 0l-21.9-125.3c-.2.3 0 .1.3 0z"/><circle cx="919.1" cy="389.8" r="2.1"/><circle cx="809.2" cy="463.4" r="2.1"/><circle cx="661.5" cy="443.7" r="2.1"/><circle cx="601.6" cy="389.8" r="2.1"/><circle cx="612.9" cy="474.5" r="2.1"/><circle cx="697.1" cy="478.3" r="2.1"/><circle cx="631.6" cy="522.1" r="2.1"/><circle cx="753.4" cy="490.9" r="2.1"/><circle cx="868.2" cy="442.3" r="2.1"/><circle cx="944.9" cy="426.1" r="2.1"/><circle cx="543.6" cy="400.1" r="2.1"/><circle cx="552.7" cy="470" r="2.1"/><circle cx="571.4" cy="541.3" r="2.1"/><circle cx="662.9" cy="536.9" r="2.1"/><circle cx="720.7" cy="513.3" r="2.1"/><circle cx="792.5" cy="513.3" r="2.1"/><circle cx="860.1" cy="468.4" r="2.1"/><circle cx="914.8" cy="483.3" r="2.1"/><circle cx="951.6" cy="517.4" r="2.1"/><circle cx="863.6" cy="526.3" r="2.1"/><circle cx="756.4" cy="559.2" r="2.1"/><circle cx="692.4" cy="547.1" r="2.1"/><circle cx="615.1" cy="563.8" r="2.1"/><circle cx="987.3" cy="450.5" r="2.1"/><circle cx="525.5" cy="341.1" r="2.1"/><circle cx="519.5" cy="214.9" r="2.1"/><circle cx="529.8" cy="124.5" r="2.1"/><circle cx="563.8" cy="58.1" r="2.1"/><circle cx="614.1" cy="9.8" r="2.1"/><circle cx="525.5" cy="12" r="2.1"/><circle cx="950.4" cy="325.8" r="2.1"/><circle cx="985.1" cy="214.9" r="2.1"/><circle cx="963.3" cy="100.3" r="2.1"/><circle cx="980.7" cy="44.5" r="2.1"/><circle cx="907.6" cy="21.3" r="2.1"/><circle cx="996" cy="377.3" r="2.1"/><path d="m907.4 21 .3.1 73.1 23.2-.2.3-72.8-23-6.3 57.7-.4-.1z"/><path d="m844.4 23.5h63.3v.4h-63.3z" transform="matrix(.9971 -.07624798 .07624798 .9971 .7412 66.8671)"/><path d="m721 5.6v.4l-106.7 4-1.1 42.6h-.2l-49.1 5.6-34.2 67v-.8l-4.3-112.5-.2-.3h.4l88.5-2.1zm-157.2 52.2 49.8-47.8-87.6 2.1zm48.9-5.5 1.1-42-49.5 47.5zm-49.2 5.8-37.7-45.5 4.2 111.2 33.4-65.4h-.2z"/><path d="m529.9 124.3 52.5 15.5-.1.4-52.5-15.5z"/><path d="m564.7 312.5 37.4 77.8-.6-.4-76.1-48.7.2-.3 75.5 48.3-36.7-76.5z"/><path d="m601 389.5 47.7 6.1v.1l13.2 48.6zm47.4 6.5-46.2-5.9 59 53z"/><path d="m950.4 325.4.2.2 45.8 51.8-.4.1-77.2 12.5zm45.2 51.7-45.1-51-31 63.4z"/><path d="m612.8 52.3.3.3-83 72 11.9 57.9-.1.1c-8.8 11.9-21.7 30.1-22.1 32.2v.1c.1 2 29.5 64.7 45.1 97.7l.1.2-.1.1-39.3 28.7v-.4l-6-126.2v-.1l10.3-90.2v-.1l.1-.1zm-71.3 130.1-11.6-56.6-10 87.7c3.2-5.9 19.3-28 21.6-31.1zm22.8 130.2c-2.5-5.3-39.9-84.8-44.6-96.3l6 124.5z"/><path d="m525.7 341 18 58.9 58-10.4v.2c.5 3.3 10.8 80.2 11.3 84.6h.2l-.1.2v.1h-.1l-41.2 66.4 59.7-19 65.5-43.9.2.3-65.5 43.9-60.7 19.4.3-.5 41.4-66.5-60-4.6-9.2-70-18.1-59.1zm87 133.1c-.8-6.5-10.7-79.6-11.3-84.1l-57.4 10.3c22.6 24.5 64.4 69.8 68.7 73.8zm-.3.2c-1.7-1.5-8.1-8.3-34.5-36.7-15.6-16.8-31.2-33.8-34-36.8l9.1 69z"/><path d="m981 44.1-17.6 56.2-14.9 62 36.8 52.5-.1.1-34.6 51.6v59.5l-51.5-3.5 20.2 67.4-57.2 2.2-52.9 71.6-.2-.1-60-39.4-87.4 19.7-30.1 78.8-18.9-48.2 48.8-31 87.7-19.7h.1l59.9 39.3 52.8-71.4h.1l56.8-2.1-20.3-67.5 51.7 3.5v-59.1-.1l34.6-51.5-36.7-52.5v-.1l14.8-61.9-62.3-21.1zm-17.9 55.9 17.2-55.2-78.5 34.4zm-331.5 421.6 29.6-77.4-48 30.4z"/><path d="m749.3 423.5v.5l4.3 67.2-56.5-12.6-.1.1-35.6-34.7.3-.3 35.3 34.3zm3.9 67.1-4.2-66.2-51.5 53.7z"/><path d="m919.1 389.4.1.2 25.9 36.6-.3.1-77.4 16.3zm25.4 36.6-25.5-35.9-50.3 51.9z"/><path d="m862.2 390.9 6.2 51.5-.2.1-58.9 21.1-55.8 27.4-32.8 22.6-.2-.2-23.4-34.8-34.1 58.5-.2-.1-31.3-14.7.2-.4 31.1 14.7 34.2-58.7 23.8 35.1 32.5-22.3 55.9-27.5 58.7-21.1-6.1-51.1z"/><path d="m552.9 469.9 18.6 71.2 91.4-4.4 57.8-23.6h71.9l-39.3-22.1.2-.3 40.7 22.8h-73.5l-57.8 23.6-91.7 4.4v-.1l-18.7-71.4z"/><path d="m963.4 100.2 21.9 114.6 10.9 162.6h-.1l-51.1 48.8-30.1 57.4-46.6-41-8.1 26-50.8-5-15.8 49.8-.4-.2 15.9-50h.2l50.6 5 8.2-26.3 46.7 41 29.9-56.9 51.1-48.8-10.9-162.3-21.8-114.6z"/><path d="m995.8 377.3h.4l-8.8 73.5-42.6-24.5.2-.4 42.1 24.3z"/><path d="m987.1 450.4.4.2-35.8 67.2-.1-.1c-3.9.6-84.4 8.5-87.9 8.8l-.6.1 51.8-43.6.1.1 36.5 34zm-36 66.9-36.3-33.8-50.6 42.5c7.7-.7 80.6-7.9 86.9-8.7z"/><path d="m987.2 450.3.2.4-72.5 32.8-54.5-14.8 3.5 57.9h-.3l-71.6-13.7 68.1-44.7h.1l54.7 14.8zm-123.8 75.8-3.5-57.3-66.9 43.9z"/><path d="m792.3 512.7.4.2-36.3 46.6-.2-.2-35.5-45.7-28.3 33.8-.1-.1-29.4-10.2-47.8 27-.1-.1-43.7-22.5.2-.4 43.6 22.5 47.8-27 29.4 10.3 28.4-33.9 35.7 45.9z"/><path d="m863.6 526.1.1.4-107.3 32.9-64-12.1-77.3 16.7-.1-.4 77.4-16.7 64 12.1z"/><path d="m541.7 779.9h.2l22 125.7c-.9.3-1.6 1.1-1.6 2.1 0 1.2 1 2.2 2.2 2.2.5 0 1-.2 1.4-.5l80.8 80.2c-.3.4-.5.9-.5 1.4 0 1.2 1 2.2 2.2 2.2.9 0 1.7-.6 2.1-1.4l96.4 26.9v.4c0 1.2 1 2.2 2.2 2.2s2.2-1 2.2-2.2c0-.1 0-.3-.1-.4l109.1-31.3c.3.8 1.1 1.4 2 1.4 1.2 0 2.2-1 2.2-2.2 0-.8-.4-1.4-1-1.8l34.6-65.2c.3.1.5.2.8.2 1.2 0 2.2-1 2.2-2.2 0-.6-.2-1.1-.6-1.5l48.6-52.9c.4.3.8.5 1.3.5 1.2 0 2.2-1 2.2-2.2s-.9-2.1-2.1-2.2l-2.1-99.2c1.1-.1 2-1 2-2.2s-1-2.2-2.2-2.2c-.3 0-.6.1-.9.2l-44.9-79.3c.6-.4 1-1 1-1.8 0-1.2-1-2.2-2.2-2.2-.6 0-1.1.2-1.5.6l-53.3-50.1c.3-.4.5-.8.5-1.4 0-1.2-1-2.2-2.2-2.2-1 0-1.9.7-2.1 1.7l-119.2-19.8c0-.1 0-.1 0-.2 0-1.2-1-2.2-2.2-2.2s-2.2 1-2.2 2.2c0 .2 0 .5.1.7l-104.2 44.9c-.4-.7-1.1-1.2-1.9-1.2-1.2 0-2.2 1-2.2 2.2 0 .8.4 1.4 1 1.8v.1c.3.1.4.6.1.8l-.5 1.5c0 .1 0 .2-.1.3-.2.5-.3 1-.6 1.5l-27.7 79c-1.6-.4-3 .8-3 2.3 0 .6.2 1.2.6 1.6l-37.1 39.2c-.1 0-.1-.1-.2-.1v-.1c-.1 0-.3 0-.4-.1l-.1.2c-.3-.1-.6-.2-.9-.2-1.2 0-2.2 1-2.2 2.2-.2 1.1.8 2.1 2 2.1zm24.1 125.8c2.4-4.2 9.3-15.9 16.2-28.1 0 0 0 0 0-.1.3-.6.7-1.2 1-1.8.2-.3.4-.7.6-1 .3-.6.6-1.1.9-1.7.1-.2.2-.4.3-.6.4-.6.7-1.3 1.1-1.9.9-1.5 1.7-3 2.5-4.5.1-.1.1-.2.2-.3.2-.3.4-.7.6-1 0 0 0-.1.1-.1.2-.3.3-.5.4-.8.1-.1.1-.2.2-.3.1-.2.2-.4.3-.6s.2-.3.3-.5.2-.4.3-.5c.1-.2.2-.4.3-.5.1-.2.2-.4.3-.5.1-.2.2-.4.3-.6s.2-.4.3-.6c.1-.1.1-.3.2-.4.1-.2.2-.5.4-.7.1-.1.1-.2.2-.4s.2-.4.3-.6c.1-.1.1-.3.2-.4.1-.2.2-.4.3-.6.1-.1.2-.3.2-.4.1-.2.2-.3.3-.5s.2-.3.3-.5c.1-.1.1-.2.2-.4s.2-.4.3-.6c.1-.1.1-.2.2-.4s.2-.4.3-.5.1-.3.2-.4.2-.3.2-.4c.1-.1.1-.3.2-.4.1-.2.2-.3.3-.5.1-.1.1-.2.2-.3.1-.2.2-.3.3-.5.1-.1.1-.2.2-.3.1-.2.2-.3.3-.5 0-.1.1-.2.1-.3.1-.2.2-.3.2-.5 0-.1.1-.2.1-.3.1-.2.2-.3.2-.4s.1-.2.1-.2c.1-.1.1-.3.2-.4 0-.1.1-.2.1-.2.1-.1.1-.3.2-.4 0-.1.1-.1.1-.2.1-.1.1-.3.2-.4 0-.1.1-.1.1-.2.1-.1.1-.2.2-.3 0-.1.1-.1.1-.2s.1-.1.1-.2c.6.1 1.1 0 1.5-.2l50.4 83.8c-.4.3-.7.7-.9 1.1l-83.7-22.5c0-.2 0-.3 0-.4.2-.7-.1-1.4-.8-1.9zm18.7-171.2 53.6-17.6c.4.9 1.2 1.5 2.2 1.5h.4l11.4 48.2c-.6.2-1 .6-1.3 1.1l-66.3-31.7c.1-.3.2-.6.2-.9-.2-.2-.2-.4-.2-.6zm58-19.5 41.7-22.6 2-1.1c.2.3.5.6.8.8l-21.9 48.8-11.5 25.7c-.4-.1-.7-.2-1.2-.1l-4.8-20.4-6.6-27.8c1-.3 1.7-1.2 1.7-2.3 0-.4-.1-.7-.2-1zm177-49.7-43.2 27.6c-.6-.8-1.5-1.1-2.5-.9l-17.2-50.4c.5-.2 1-.6 1.2-1.2l61.5 23.1c-.1.2-.1.4-.1.7 0 .4.1.8.3 1.1zm68.9 96-46.6 37.7c-.4-.4-.9-.7-1.5-.7l2-58.6c.8 0 1.6-.5 2-1.2l26.2 12.4 17.5 8.3c-.1.3-.2.6-.2.8.2.5.3.9.6 1.3zm59.6 100.2-96.7 11.5c0-.2-.1-.4-.2-.6l45.9-29.6c.5.6 1.2.9 1.9.9.9 0 1.8-.5 2.2-1.4l13.8 5.4 33.2 13c-.1.3-.1.5-.1.8 0-.1 0 0 0 0zm-51.5 56.7-78 29.5c-.2-.5-.6-.8-1-1.1l30.7-70.8c.8.3 1.8.1 2.4-.5l3.9 3.4 42.4 37.5c-.3.4-.5.9-.5 1.4 0 .2.1.4.1.6zm-243 10.9 3.3-15 8.5-38.2c.7.1 1.3-.1 1.9-.5l20.7 21.4 48.8 50.4c-.2.3-.4.6-.5.9l-81-16.4c0-.1 0-.2 0-.3 0-1-.7-2-1.7-2.3zm-51.4-86.3 40-15.6 43.8-17.1c.2.5.7.9 1.2 1.1l-13 37.1-8 22.7c-1.1-.3-2.2.2-2.7 1.2l-47.9-21.8-13.6-6.2c.1-.3.1-.5.1-.8.3-.1.2-.4.1-.6zm151.4-.9c0-.2.1-.4.1-.6 0-.3 0-.5-.1-.8l13.3-6.1 71.3-32.6c.4.8 1.2 1.2 2.1 1.2h.1l3.2 26.2 5.1 41.9c-.8.2-1.4.7-1.7 1.4zm93.1 31c0 .2-.1.3-.1.5l-33.4 1.6-7.3.4c-.2-1.2-1.2-2.1-2.4-2.1-.7 0-1.4.3-1.9.9l-41.6-27.4-6.7-4.4c0-.1.1-.1.1-.2zm-8.6-73.3-45-18.3-39.6-16.1c.1-.2.1-.5.1-.7 0-1-.6-1.8-1.5-2.2l21.6-65.5c.6.2 1.1.1 1.7-.2l32 51.6 31.3 50.6c-.2.1-.5.4-.6.8zm-84.7-34.1 44.9 18.3 39.6 16.1c-.1.2-.1.5-.1.7 0 .3 0 .5.1.8l-84.6 38.7c-.4-.7-1.1-1.2-1.9-1.2v-72.1c.9 0 1.6-.5 2-1.3zm-.2 77.3 48.3 31.8c-.2.4-.3.7-.3 1.2v.3l-60.3 11.8c-.2-.7-.8-1.3-1.5-1.6l4.4-16.4 7-26.1h.4c.8-.1 1.5-.4 2-1zm-2.1-3.9c-.8.1-1.4.5-1.8 1.1l-58.7-30c.1-.3.2-.6.2-.9 0-.4-.1-.9-.3-1.2l59.1-41.9c.4.5 1 .8 1.6.9v72zm-61-31.4c-.5-.5-1.1-.9-1.8-.9-.5 0-1 .2-1.4.5l-16.1-18.3-16.1-18.3c.4-.4.7-1 .7-1.6l93.6-4.2c0 .3.1.6.3.9zm-23.4 63.8 10.4-29.9 10.5-30c.6.2 1.2.1 1.7-.2l47.7 75.2c-.4.3-.7.8-.9 1.2l-15.5-3.2-52.5-10.6c0-.1 0-.2 0-.3.1-1-.5-1.8-1.4-2.2zm16.7 20.2-15.9-16.4c.2-.3.4-.6.5-.9l15.5 3.2 52.7 10.8v.3c0 1.3 1 2.3 2.2 2.4v55.6c-.5 0-.9.2-1.3.5zm54.1-5.3-4.2-6.6-43.6-68.6.6-.6 29.4 15 29.4 15c-.1.3-.2.6-.2.9 0 1 .6 1.9 1.6 2.3l-5.4 20.2-6 22.2c-.7-.1-1.2 0-1.6.2zm1.3 4.6c.6-.1 1.2-.3 1.6-.8l34.1 26.4 40 31c-.2.3-.4.7-.4 1.1h-73.1c-.1-1.2-1-2.1-2.2-2.2zm73.3 54.3-71.5-55.5c.3-.4.4-.8.4-1.3 0-.1 0-.2 0-.3l60.3-11.8c.3 1 1.2 1.8 2.3 1.8h.2l4.9 27.6 7.2 40.7c-.4.1-.8.4-1.2.7zm-2.2-34.9-5.7-32.2c1-.3 1.8-1.2 1.8-2.2l40.7-2c.1.8.6 1.4 1.2 1.8l-30.7 70.8c-.3-.1-.7-.1-1-.1zm39.1-39.1-3-24.4-5.3-43.6c.5-.1 1-.4 1.4-.8l54.8 37.9c-.2.4-.3.8-.3 1.2s.1.8.3 1.1l-36.8 23.7-9.1 5.9c-.5-.7-1.3-1.1-2-1zm49.9-32.2-2-18.8-6-57.7c1.1-.2 1.9-1.1 2-2.3l53-2c.1.7.4 1.3 1 1.7l-8.2 13.9-38.6 65.4c-.4-.1-.8-.2-1.2-.2zm-6.6-59.5 6.2 59.5c-.6.1-1.1.4-1.4.8l-54.8-37.9c.2-.4.3-.8.3-1.2 0-.5-.1-.9-.4-1.3l26.4-21.3 20.2-16.3c.5.5 1.1.8 1.7.8zm-52.2 18.8c-.3 0-.7.1-1 .3l-32-51.6-31.3-50.6c.2-.1.3-.3.5-.5l64 40.3c-.2.3-.3.7-.3 1.1 0 1.2.9 2.3 2.1 2.4zm.4-62.4-45.9-28.9-18-11.4c.2-.3.3-.7.3-1.1s-.1-.8-.3-1.1l43.2-27.6c.5.6 1.2 1 1.9 1 .1 0 .3 0 .5-.1l17.8 62.6 1.7 5.8c-.6.2-.9.4-1.2.8zm-74.4-65.3 7.4 21.7c-.8.3-1.3 1-1.4 1.9l-81.3-4.2c0-.4-.1-.8-.4-1.2l63.6-47.6c.5.5 1.1.8 1.8.8.2 0 .4 0 .6-.1zm-75.4 19.8 81.3 4.2c0 .9.6 1.8 1.5 2.1l-21.6 65.5c-.7-.2-1.4 0-2 .4l-9.6-11.3-50.3-59.5c.4-.4.6-.9.7-1.4zm32.1 40.8 26.7 31.6c-.4.4-.7 1-.7 1.6l-93.6 4.2c-.1-.8-.5-1.4-1.2-1.8l30-66.9 3.4-7.6c.7.3 1.6.1 2.2-.3zm-68.5 39.7 32.2 36.6c-.4.5-.7 1-.7 1.7 0 .2 0 .5.1.7l-65 25.3-18.9 7.4c-.1-.3-.4-.6-.6-.8l5.5-7.7 44.7-63c.8.4 1.9.4 2.7-.2zm-52.3 73.9 47.9 21.8 13.6 6.2c-.1.3-.1.5-.1.8 0 1.1.7 2 1.7 2.3l-5 22.7-6.8 30.6c-.5-.1-1 0-1.4.2l-50.4-83.8c.1-.2.4-.5.5-.8zm46.4 143.9c-.6 0-1.1.2-1.5.6l-80.5-79.9c.2-.2.3-.5.4-.7l83.7 22.5v.4c0 1.2.9 2.2 2 2.4l-1.4 18.8zm.4 0 2.4-32.3 1.7-22.4c1.1 0 2-.7 2.3-1.7l81 16.4v.3c0 .3.1.6.2.8l-85.8 40.2c-.4-.7-1.1-1.2-1.8-1.3zm98 29.7-96-26.8c0-.2 0-.3 0-.5 0-.3-.1-.6-.2-.8l85.8-40.2c.4.7 1.2 1.2 2.1 1.2h.2l9.8 65.6c-.8.2-1.4.7-1.7 1.5zm3.8-1.1c-.5-.4-1.1-.6-1.7-.5l-9.8-65.6c1-.2 1.8-1.1 1.9-2.1h73.1c0 .5.3 1 .6 1.4l-55.2 57.6zm109.3-30.6c0 .2 0 .3.1.5l-108.7 31.2c-.1-.3-.3-.5-.4-.7l56.2-58.7 7.9-8.2c.4.4 1 .5 1.5.5.6 0 1.3-.3 1.7-.7l37.8 31.2 4.4 3.6c-.3.3-.5.8-.5 1.3zm3.4-2.2c-.9-.4-2-.2-2.7.5l-33-27.2-9.1-7.5c.3-.4.4-.9.4-1.4 0-.2 0-.4-.1-.7l22.4-8.5 55.6-21c.2.4.5.7.9 1zm37.1-68.7c-.4-.3-.9-.5-1.5-.5s-1.2.2-1.7.7l-1.7-1.5-44.6-39.4c.3-.4.5-.9.5-1.4v-.1l64.4-7.7 32.2-3.8c.1.4.3.8.6 1.1zm47.7-155.5 2.1 98.8c-.8.1-1.5.6-1.9 1.3l-23.5-9.2-23.5-9.2c.1-.2.1-.5.1-.7 0-.8-.4-1.5-1-2l14.3-24.3 32.5-55.1c.3.3.6.4.9.4zm-45.9-83.3 44.7 78.9c-.6.4-1 1.1-1.1 1.9l-52.9 2c-.1-1-.9-1.8-1.9-2.1l10.1-80.6c.3.1.7 0 1.1-.1zm-1.5.1-7 56.4-3 24.2h-.1c-.9 0-1.7.5-2.1 1.2l-7.1-3.3-36.7-17.4c.1-.3.2-.6.2-.8 0-.6-.2-1.2-.6-1.6l55.5-59.1c.2.2.5.4.9.4zm-56.8 58.4c-.4-.3-1-.5-1.5-.5-.1 0-.3 0-.5.1l-16.9-59.6-2.5-8.8c.8-.3 1.3-.9 1.5-1.7l74.7 9.8v.1c0 .6.2 1.2.6 1.6zm2.3-112.1 53 49.8c-.2.3-.4.6-.5 1l-74.7-9.8v-.1c0-.8-.4-1.6-1.1-2l20.7-38.4c1 .4 2 .2 2.6-.5zm-2.9.3-20.7 38.4c-.3-.1-.6-.2-1-.2-.9 0-1.8.5-2.2 1.4l-15.3-5.7-46.2-17.3c.1-.2.1-.4.1-.7 0-.1 0-.2 0-.3l9.5-1.9 74.8-15.1c.2.6.5 1.1 1 1.4zm-119.9-22 118.8 19.7v.2.3l-9.5 1.9-74.8 15.1c-.3-1-1.2-1.7-2.3-1.7-.5 0-1 .2-1.5.5l-31.4-34.9c.4-.3.6-.7.7-1.1zm-.9 1.3 31.4 34.9c-.4.4-.7 1-.7 1.6 0 .5.1.9.4 1.3l-50.2 37.6-13.4 10c-.2-.2-.5-.4-.8-.6l19.8-53.6 11.4-30.9c.8.4 1.5.2 2.1-.3zm-107.4 44 103.8-44.8c.2.5.6.8 1.1 1l-31.1 84.4c-1-.3-2.1.1-2.6 1l-71.3-39.9c.1-.3.2-.7.2-1 0-.2 0-.4-.1-.7zm-.3 2.2 29.2 16.3 42.1 23.6c-.1.3-.2.7-.2 1s.1.7.2 1l-43.7 23.7c-.6-.9-1.7-1.3-2.7-1l-6-14.7-19.8-49c.4-.3.7-.6.9-.9zm-2.6.9c.5.1.9.1 1.3 0l25.8 63.8c-.8.4-1.3 1.2-1.3 2.2 0 .2 0 .4.1.6l-53.6 17.6c-.2-.6-.7-1-1.2-1.3zm-27.9 86.3 66.3 31.7c-.1.3-.2.6-.2.9 0 .7.3 1.4.9 1.8l-50.1 70.7c-.4-.3-.9-.4-1.4-.3l-16.9-103.7c.5-.2 1.1-.6 1.4-1.1zm-40.7 39.8 37.1-39.2c.4.3 1 .5 1.5.5h.2l16.9 103.7c-.4.1-.8.3-1.1.7 0 0 0 0-.1-.1s-.2-.2-.3-.3c0 0-.1-.1-.1-.1-.1-.1-.3-.3-.4-.4 0 0-.1-.1-.1-.1-.1-.1-.3-.3-.4-.5 0 0 0 0-.1-.1-.2-.2-.3-.3-.5-.5 0 0 0 0-.1-.1-.2-.2-.4-.4-.5-.6 0 0-.1-.1-.1-.1-.2-.2-.4-.4-.6-.6s-.4-.4-.6-.7c-9.3-10.1-27.9-31.6-40.2-45.9-.8-1-1.6-1.9-2.4-2.8-.1-.1-.2-.2-.3-.3-.2-.2-.4-.4-.6-.7-.1-.1-.1-.2-.2-.3-.2-.2-.3-.4-.5-.6-.4-.5-.8-.9-1.2-1.4-.2-.3-.5-.5-.7-.8-2-2.4-3.7-4.3-4.8-5.6.5-.5.7-1.1.7-1.7.1-.4-.1-1-.5-1.4zm-.4 3.6c2.4 2.9 7.7 9.1 14.2 16.6 0 0 .1.1.1.1 1.6 1.9 3.3 3.9 5.1 5.9 0 0 0 0 .1.1.9 1.1 1.9 2.1 2.8 3.2.2.2.3.4.5.5 0 .1.1.1.1.2.3.4.6.7.9 1.1 1.7 1.9 3.3 3.9 5 5.8.7.8 1.4 1.6 2.1 2.4.2.2.3.4.5.6l.2.2c1 1.2 2 2.3 3.1 3.5.1.1.2.3.4.4.2.3.5.6.7.8.3.4.7.8 1 1.1l.5.5c.2.2.4.5.6.7s.3.4.5.6.3.4.5.5c.2.2.4.4.5.6.2.2.3.4.5.6.1.1.2.3.4.4.2.2.4.5.6.7.1.2.3.3.4.5.2.2.4.4.5.6s.3.3.4.5l.6.6c.1.1.2.3.4.4l.6.6.4.4c.2.2.4.4.5.6l.3.3c.2.2.4.4.6.7.1.1.2.3.3.4.2.2.3.4.5.6.1.1.2.3.4.4.2.2.3.4.5.5.1.1.2.2.3.4.2.2.3.4.5.5l.3.3c.2.2.3.4.5.5l.3.3.5.5.3.3.5.5.3.3c.1.2.3.3.4.5l.3.3.4.4.3.3.4.4c.1.1.2.2.2.2.1.1.2.3.4.4.1.1.2.2.2.2l.3.3c.1.1.2.2.2.2l.3.3.2.2.3.3.2.2.2.2c-.3.4-.4.9-.4 1.4 0 1 .6 1.9 1.5 2.2 0 .1-.1.1-.1.2s0 .1-.1.2-.1.2-.2.4c0 .1-.1.1-.1.2-.1.1-.1.3-.2.4 0 .1-.1.1-.1.2-.1.1-.1.3-.2.4 0 .1-.1.1-.1.2-.1.2-.2.3-.2.5 0 .1-.1.1-.1.2-.1.2-.2.3-.3.5 0 .1-.1.1-.1.2-.1.2-.2.4-.3.5 0 .1-.1.1-.1.2-.1.2-.2.4-.3.6 0 .1-.1.2-.1.2-.1.2-.2.4-.3.6 0 .1-.1.2-.1.3-.1.2-.2.4-.3.6 0 .1-.1.2-.1.2-.1.2-.2.4-.3.6 0 .1-.1.2-.1.2-.1.2-.2.4-.4.7 0 .1-.1.1-.1.2-.1.2-.3.5-.4.7 0 .1-.1.1-.1.2-.1.2-.3.5-.4.7 0 .1-.1.2-.1.3-.1.2-.3.5-.4.7 0 .1-.1.2-.1.3-.1.3-.3.5-.4.8 0 .1-.1.2-.1.2-.1.3-.3.5-.4.8 0 .1-.1.1-.1.2-.1.2-.3.5-.4.7-.1.1-.1.2-.2.3-.1.2-.3.5-.4.7-.1.1-.1.2-.2.3-.2.3-.3.6-.5.8 0 .1-.1.1-.1.2-.2.3-.3.6-.5.8-.1.1-.1.2-.2.3-.1.2-.3.5-.4.7s-.2.3-.3.5-.2.4-.3.6-.2.4-.3.5c-.1.2-.3.5-.4.7-.1.1-.1.3-.2.4-.2.3-.3.5-.5.8-.1.1-.1.2-.2.4-.2.3-.3.6-.5.9 0 .1-.1.2-.1.3-.1.2-.2.4-.4.6-.1.2-.2.4-.3.6 0 0 0 .1-.1.1-.4.7-.8 1.5-1.2 2.2 0 .1-.1.1-.1.2-.4.7-.8 1.4-1.2 2.2 0 0-.1.1-.1.1-7.4 12.9-14.9 25.9-17.5 30.4-.3-.2-.7-.2-1-.2-.1 0-.1 0-.2 0l-22.4-125c.3 0 .5-.2.8-.3z"/><circle cx="919.1" cy="985" r="2.1"/><circle cx="809.2" cy="1058.6" r="2.1"/><circle cx="661.5" cy="1038.9" r="2.1"/><circle cx="601.6" cy="985" r="2.1"/><circle cx="612.9" cy="1069.7" r="2.1"/><circle cx="697.1" cy="1073.5" r="2.1"/><circle cx="631.6" cy="1117.3" r="2.1"/><circle cx="753.4" cy="1086.1" r="2.1"/><circle cx="868.2" cy="1037.5" r="2.1"/><circle cx="944.9" cy="1021.3" r="2.1"/><circle cx="543.6" cy="995.3" r="2.1"/><circle cx="552.7" cy="1065.2" r="2.1"/><circle cx="571.4" cy="1136.5" r="2.1"/><circle cx="662.9" cy="1132.1" r="2.1"/><circle cx="720.7" cy="1108.5" r="2.1"/><circle cx="792.5" cy="1108.5" r="2.1"/><circle cx="860.1" cy="1063.6" r="2.1"/><circle cx="914.8" cy="1078.5" r="2.1"/><circle cx="951.6" cy="1112.6" r="2.1"/><circle cx="863.6" cy="1121.5" r="2.1"/><circle cx="756.4" cy="1154.4" r="2.1"/><circle cx="692.4" cy="1142.3" r="2.1"/><circle cx="615.1" cy="1159" r="2.1"/><circle cx="987.3" cy="1045.7" r="2.1"/><circle cx="525.5" cy="936.3" r="2.1"/><circle cx="519.5" cy="810.1" r="2.1"/><circle cx="529.8" cy="719.7" r="2.1"/><circle cx="563.8" cy="653.3" r="2.1"/><circle cx="614.1" cy="605" r="2.1"/><circle cx="525.5" cy="607.2" r="2.1"/><circle cx="950.4" cy="921" r="2.1"/><circle cx="985.1" cy="810.1" r="2.1"/><circle cx="963.3" cy="695.5" r="2.1"/><circle cx="980.7" cy="639.7" r="2.1"/><circle cx="907.6" cy="616.5" r="2.1"/><circle cx="996" cy="972.5" r="2.1"/><path d="m907.4 616.3h.3l73.1 23.2-.2.4-72.8-23.1-6.3 57.7-.4-.1z"/><path d="m844.4 618.7h63.3v.4h-63.3z" transform="matrix(.9971 -.07624798 .07624798 .9971 -44.6421 68.5998)"/><path d="m721 600.8v.4l-106.7 4-1.1 42.6h-.2l-49.1 5.6-34.2 67v-.8l-4.3-112.5-.2-.3h.4l88.5-2.1zm-157.2 52.2 49.8-47.8-87.6 2.1zm48.9-5.5 1.1-42-49.5 47.5zm-49.2 5.8-37.7-45.5 4.2 111.2 33.4-65.4h-.2z"/><path d="m529.9 719.6 52.5 15.4-.1.4-52.5-15.5z"/><path d="m564.7 907.7 37.4 77.8-.6-.4-76.1-48.7.2-.3 75.5 48.3-36.7-76.5z"/><path d="m601 984.7 47.7 6.1v.1l13.2 48.6zm47.4 6.5-46.2-5.9 59 53z"/><path d="m950.4 920.6.2.2 45.8 51.8-.4.1-77.3 12.5zm45.2 51.7-45.1-51-31 63.4z"/><path d="m612.8 647.6.3.3-83 72 11.9 57.9-.1.1c-8.8 11.9-21.7 30.1-22.1 32.2v.1c.1 2 29.5 64.7 45.1 97.7l.1.2-.1.1-39.3 28.7v-.4l-6-126.2v-.1l10.3-90.2v-.1l.1-.1zm-71.3 130.1-11.6-56.7-10 87.7c3.2-5.9 19.3-28 21.6-31zm22.8 130.1c-2.5-5.3-39.9-84.8-44.6-96.3l6 124.5z"/><path d="m525.7 936.2 18 58.9 58-10.4v.2c.5 3.3 10.8 80.2 11.3 84.6h.2l-.1.2v.1h-.1l-41.2 66.3 59.7-19 65.5-43.9.2.3-65.5 43.9-60.7 19.4.3-.5 41.4-66.5-60-4.6-9.2-70-18.1-59.1zm87 133.1c-.8-6.5-10.7-79.6-11.3-84.1l-57.4 10.3c22.6 24.5 64.4 69.8 68.7 73.8zm-.3.2c-1.7-1.5-8.1-8.3-34.5-36.7-15.6-16.8-31.2-33.8-34-36.8l9.1 69z"/><path d="m981 639.3-17.6 56.2-14.9 62 36.8 52.5-.1.1-34.6 51.6v59.4l-51.5-3.5 20.2 67.4-57.2 2.2-52.9 71.6-.2-.1-60-39.4-87.4 19.7-30.1 78.8-18.9-48.2 48.8-31 87.7-19.7h.1l59.9 39.3 52.8-71.4h.1l56.8-2.1-20.3-67.5 51.7 3.5v-59.1-.1l34.6-51.5-36.7-52.5v-.1l14.8-61.9-62.3-21.1zm-17.9 55.9 17.2-55.2-78.5 34.4zm-331.5 421.6 29.6-77.4-48 30.4z"/><path d="m749.3 1018.7v.5l4.3 67.2-56.5-12.6-.1.1-35.6-34.7.3-.3 35.4 34.4zm3.9 67.1-4.2-66.2-51.5 53.7z"/><path d="m919.1 984.6.1.2 25.9 36.6-.3.1-77.4 16.3zm25.4 36.6-25.5-35.9-50.3 51.9z"/><path d="m862.2 986.1 6.2 51.5-.2.1-58.9 21.1-55.8 27.5-32.8 22.5-.2-.2-23.4-34.8-34.1 58.5-.2-.1-31.3-14.7.2-.4 31.1 14.7 34.2-58.7 23.8 35.1 32.5-22.3 55.9-27.5 58.7-21.1-6.1-51.1z"/><path d="m552.9 1065.1 18.6 71.2 91.4-4.4 57.8-23.6h71.9l-39.3-22.1.2-.3 40.7 22.8h-73.5l-57.8 23.6-91.7 4.4v-.1l-18.7-71.4z"/><path d="m963.4 695.4 21.9 114.6 10.9 162.6h-.1l-51.1 48.8-30.1 57.4-46.6-41-8.1 26-50.8-5-15.8 49.8-.4-.1 15.9-50.1h.2l50.6 5 8.2-26.3 46.7 41 29.9-56.9 51.1-48.8-10.9-162.3-21.8-114.6z"/><path d="m995.8 972.5h.4l-8.8 73.5-42.6-24.5.2-.3 42.1 24.2z"/><path d="m987.1 1045.6.4.2-35.8 67.2-.1-.1c-3.9.6-84.4 8.5-87.9 8.8l-.6.1 51.8-43.6.1.1 36.5 34zm-36 66.9-36.3-33.8-50.6 42.5c7.7-.7 80.6-7.9 86.9-8.7z"/><path d="m987.2 1045.5.2.4-72.5 32.8-54.5-14.8 3.5 57.9h-.3l-71.6-13.6 68.1-44.7h.1l54.7 14.8zm-123.8 75.8-3.5-57.3-66.9 43.9z"/><path d="m792.3 1107.9.4.2-36.3 46.6-.2-.2-35.5-45.7-28.3 33.8-.1-.1-29.4-10.2-47.8 27-.1-.1-43.7-22.5.2-.4 43.6 22.5 47.8-27 29.4 10.3 28.4-33.9 35.7 45.9z"/><path d="m863.6 1121.3.1.4-107.3 32.9-64-12.1-77.3 16.7-.1-.4 77.4-16.7 64 12.1z"/></g><path d="m525.7 12.6-95.5 15.8" fill="#fff"/><path d="m429.6 20.3h96.8v.4h-96.8z" fill="#231f20" transform="matrix(.9864 -.1641 .1641 .9864 3.1128 78.7065)"/><path d="m449.1 99.6 76.2-87.5" fill="#fff"/><path d="m429.2 55.6h116v.4h-116z" fill="#231f20" transform="matrix(.6566 -.7543 .7543 .6566 125.2244 386.674)"/><path d="m529.9 125.8-81.1-26.1" fill="#fff"/><g fill="#231f20"><path d="m489.1 70.1h.4v85.2h-.4z" transform="matrix(.3066 -.9518 .9518 .3066 231.9481 543.9156)"/><path d="m476.4 228.7-.1-.4 42.9-13.5-61.3-45.4 71.6-45 .2.3-71 44.7 61.4 45.5-.4.2z"/><path d="m481.7 355.1.1-.3 37.7-140 .4.1-37.6 139.6 43.3-13.7.2.4z"/><path d="m543.7 400.9-61.8-45.9.2-.3 61.9 45.9z"/><path d="m844.7 621.9-.3-.2-88-62-35.5 41.5-.1-.3-28.5-53.7-78.7 58.7 1.3-41.5-89.1 43.6-.1-.4 89.6-43.9-1.2 41.4 78.3-58.5 28.6 53.9 35.3-41.4.2.1 87.9 62 19.1-94.8.4.1z"/><path d="m844.7 621.7-.3-.3 107.3-105-.4 1-43.5 99.4-.4-.2 43.1-98.4z"/><path d="m965.8 516.7h.4v125h-.4z" transform="matrix(.9731 -.2306 .2306 .9731 -107.5167 238.3107)"/><path d="m50.5 665.7-.1-.7-29.3-140.2.4-.1 29.1 139.5 43.4-116.7 43.9 107.5 19.1-111.7 88.2 79.7 35.5-59.8 28.6 71.4 78.7-75.8v.5l-1.3 58.6 89-61 76.8-86.9-81.4-24.1.4-.2 72.3-46 .2.3-72 45.7 81.2 24-76.8 86.9 95.2-15.5-.3.4-45.7 66.5-.2-.2-49.7-50.6-89.6 61.3v-.4l1.3-58.5-78.4 75.5-.1-.3-28.2-70.8-35.3 59.5-.2-.2-87.9-79.3-19.2 112.4-.3-.7-43.7-107.1zm425.9-108.5 49.4 50.3 45.1-65.7z"/><path d="m429.8 641.5.2-.5 45.8-84.3.2.2 50 51-.3.1zm46.2-84.2-45.3 83.4 94.7-33z"/><path d="m529.8 721.2-81-8.8.2-.3 76.6-104.4.3.2-76.4 104.2 80.4 8.7z"/><path d="m475.4 1170.1.4-.6 76.4-104.1-80.6-7.5.4-.3 71.5-61.6-61.5-28.6.3-.2 42.8-30.9-49.4-95.1 43.2-31.1-61.4-28.5.2-.2 71.8-62 .3.3-71.6 61.8 61.5 28.5-43.5 31.3 49.4 95.1-.2.1-42.6 30.8 61.4 28.6-.2.2-71.4 61.5 80.3 7.4-.2.3-76.2 104 94.7-32.8.1.4z"/></g></g></svg>
