<?xml version="1.0" encoding="UTF-8" standalone="no"?>
<svg width="120px" height="99px" viewBox="0 0 120 99" version="1.1" xmlns="http://www.w3.org/2000/svg" xmlns:xlink="http://www.w3.org/1999/xlink">
    <g id="Page-1" stroke="none" stroke-width="1" fill="none" fill-rule="evenodd">
        <g id="Home---Alt" transform="translate(-455.000000, -725.000000)">
            <g id="Page-1" transform="translate(457.000000, 727.000000)">
                <path d="M116.047761,34.8179104 L116.047761,60.3223881 L80.9432836,60.3223881 C79.3671642,60.3223881 78.0776119,59.0328358 78.0776119,57.4567164 L78.0776119,37.6835821 C78.0776119,36.1074627 79.3671642,34.8179104 80.9432836,34.8179104 L116.047761,34.8179104 Z M5.5880597,0 C2.4358209,0 0,2.57910448 0,5.5880597 L0,89.2656716 C0,92.4179104 2.57910448,94.8537313 5.5880597,94.8537313 L95.7134328,94.8537313 C107.032836,94.8537313 116.202985,85.6835821 116.202985,74.3641791 L116.202985,20.4895522 C116.059701,9.17014925 106.889552,0 95.5701493,0 L5.5880597,0 Z" id="Fill-1" stroke="#1E4C82" stroke-width="2.4"></path>
                <path d="M31.5223881,12.0358209 L41.1223881,12.0358209 C41.838806,12.0358209 42.5552239,11.4626866 42.5552239,10.6029851 C42.5552239,9.74328358 41.9820896,9.17014925 41.1223881,9.17014925 L31.5223881,9.17014925 C30.8059701,9.17014925 30.0895522,9.74328358 30.0895522,10.6029851 C30.0895522,11.4626866 30.6626866,12.0358209 31.5223881,12.0358209" id="Fill-3" fill="#1E4C82"></path>
                <path d="M64.6208955,84.2507463 C64.6208955,84.9671642 65.1940299,85.6835821 66.0537313,85.6835821 L75.6537313,85.6835821 C76.3701493,85.6835821 77.0865672,85.1104478 77.0865672,84.2507463 C77.0865672,83.3910448 76.5134328,82.8179104 75.6537313,82.8179104 L66.0537313,82.8179104 C65.1940299,82.8179104 64.6208955,83.3910448 64.6208955,84.2507463" id="Fill-5" fill="#1E4C82"></path>
                <path d="M48.7164179,12.0358209 L58.3164179,12.0358209 C59.0328358,12.0358209 59.7492537,11.4626866 59.7492537,10.6029851 C59.7492537,9.74328358 59.1761194,9.17014925 58.3164179,9.17014925 L48.7164179,9.17014925 C48,9.17014925 47.2835821,9.74328358 47.2835821,10.6029851 C47.2835821,11.4626866 48,12.0358209 48.7164179,12.0358209" id="Fill-7" fill="#1E4C82"></path>
                <path d="M58.3164179,82.8179104 L48.7164179,82.8179104 C48,82.8179104 47.2835821,83.3910448 47.2835821,84.2507463 C47.2835821,85.1104478 47.8567164,85.6835821 48.7164179,85.6835821 L58.3164179,85.6835821 C59.0328358,85.6835821 59.7492537,85.1104478 59.7492537,84.2507463 C59.7492537,83.3910448 59.0328358,82.8179104 58.3164179,82.8179104" id="Fill-9" fill="#1E4C82"></path>
                <path d="M75.5104478,9.17014925 L65.9104478,9.17014925 C65.1940299,9.17014925 64.4776119,9.74328358 64.4776119,10.6029851 C64.4776119,11.4626866 65.0507463,12.0358209 65.9104478,12.0358209 L75.5104478,12.0358209 C76.2268657,12.0358209 76.9432836,11.4626866 76.9432836,10.6029851 C76.9432836,9.74328358 76.2268657,9.17014925 75.5104478,9.17014925" id="Fill-11" fill="#1E4C82"></path>
                <path d="M92.7044776,9.17014925 L83.1044776,9.17014925 C82.3880597,9.17014925 81.6716418,9.74328358 81.6716418,10.6029851 C81.6716418,11.4626866 82.2447761,12.0358209 83.1044776,12.0358209 L92.7044776,12.0358209 C93.4208955,12.0358209 94.1373134,11.4626866 94.1373134,10.6029851 C94.1373134,9.74328358 93.5641791,9.17014925 92.7044776,9.17014925" id="Fill-13" fill="#1E4C82"></path>
                <path d="M100.728358,9.45671642 C100.01194,9.31343284 99.1522388,9.74328358 99.0089552,10.4597015 C98.8656716,11.1761194 99.2955224,12.0358209 100.01194,12.1791045 C102.591045,12.7522388 104.453731,15.1880597 104.597015,17.7671642 C104.597015,18.4835821 105.313433,19.0567164 106.029851,19.0567164 C106.746269,19.0567164 107.462687,18.3402985 107.319403,17.6238806 C107.176119,13.7552239 104.453731,10.4597015 100.728358,9.45671642" id="Fill-15" fill="#1E4C82"></path>
                <path d="M83.2477612,85.6835821 L92.8477612,85.6835821 C93.5641791,85.6835821 94.280597,85.1104478 94.280597,84.2507463 C94.280597,83.3910448 93.7074627,82.8179104 92.8477612,82.8179104 L83.2477612,82.8179104 C82.5313433,82.8179104 81.8149254,83.3910448 81.8149254,84.2507463 C81.8149254,85.1104478 82.3880597,85.6835821 83.2477612,85.6835821" id="Fill-17" fill="#1E4C82"></path>
                <path d="M14.3283582,12.0358209 L23.9283582,12.0358209 C24.6447761,12.0358209 25.361194,11.4626866 25.361194,10.6029851 C25.361194,9.74328358 24.7880597,9.17014925 23.9283582,9.17014925 L14.3283582,9.17014925 C13.6119403,9.17014925 12.8955224,9.74328358 12.8955224,10.6029851 C12.8955224,11.4626866 13.4686567,12.0358209 14.3283582,12.0358209" id="Fill-19" fill="#1E4C82"></path>
                <path d="M100.441791,85.3970149 L100.728358,85.3970149 C104.453731,84.3940299 107.319403,81.0985075 107.462687,77.2298507 C107.462687,76.5134328 106.889552,75.7970149 106.173134,75.7970149 C105.456716,75.7970149 104.740299,76.3701493 104.740299,77.0865672 C104.597015,79.8089552 102.734328,82.1014925 100.155224,82.6746269 C99.438806,82.8179104 99.0089552,83.6776119 99.1522388,84.3940299 C99.1522388,84.9671642 99.7253731,85.3970149 100.441791,85.3970149" id="Fill-21" fill="#1E4C82"></path>
                <path d="M41.1223881,82.8179104 L31.5223881,82.8179104 C30.8059701,82.8179104 30.0895522,83.3910448 30.0895522,84.2507463 C30.0895522,85.1104478 30.6626866,85.6835821 31.5223881,85.6835821 L41.1223881,85.6835821 C41.838806,85.6835821 42.5552239,85.1104478 42.5552239,84.2507463 C42.5552239,83.3910448 41.838806,82.8179104 41.1223881,82.8179104" id="Fill-23" fill="#1E4C82"></path>
                <path d="M23.9283582,82.8179104 L14.3283582,82.8179104 C13.6119403,82.8179104 12.8955224,83.3910448 12.8955224,84.2507463 C12.8955224,85.1104478 13.4686567,85.6835821 14.3283582,85.6835821 L23.9283582,85.6835821 C24.6447761,85.6835821 25.361194,85.1104478 25.361194,84.2507463 C25.361194,83.3910448 24.6447761,82.8179104 23.9283582,82.8179104" id="Fill-25" fill="#1E4C82"></path>
                <path d="M92.0597015,57.0268657 C97.2179104,57.0268657 101.516418,52.7283582 101.516418,47.5701493 C101.516418,42.4119403 97.2179104,38.1134328 92.0597015,38.1134328 C86.9014925,38.1134328 82.6029851,42.4119403 82.6029851,47.5701493 C82.6029851,52.7283582 86.758209,57.0268657 92.0597015,57.0268657" id="Fill-27" stroke="#1E4C82" stroke-width="2.4"></path>
            </g>
        </g>
    </g>
</svg>