<?xml version="1.0" encoding="UTF-8" standalone="no"?>
<svg width="107px" height="107px" viewBox="0 0 107 107" version="1.1" xmlns="http://www.w3.org/2000/svg" xmlns:xlink="http://www.w3.org/1999/xlink">
    <g id="Page-1" stroke="none" stroke-width="1" fill="none" fill-rule="evenodd">
        <g id="Home---Alt" transform="translate(-462.000000, -429.000000)">
            <g id="Group-5" transform="translate(463.000000, 431.000000)">
                <g id="Group" transform="translate(0.400000, 0.000000)">
                    <path d="M51.8191353,76.5490243 C38.1817255,76.5490243 27.0892462,65.456545 27.0892462,51.8191353 C27.0892462,38.1817255 38.1817255,27.0892462 51.8191353,27.0892462 C65.456545,27.0892462 76.5490243,38.1817255 76.5490243,51.8191353 C76.5490243,65.456545 65.456545,76.5490243 51.8191353,76.5490243 L51.8191353,76.5490243 Z" id="Shape" stroke="#1E4C82" stroke-width="2.4"></path>
                    <g transform="translate(33.611391, 35.970748)" stroke="#1E4C82" stroke-width="2.4">
                        <path d="M10.6599124,19.6733927 C5.85088149,21.768021 1.98851731,25.8225601 0.199889145,31.0280431 C-0.0833804937,31.8418813 0.127947649,32.74115 0.734954017,33.3481563 C5.40215853,38.0108645 11.6116089,40.5782766 18.2077447,40.5782766 C24.8038806,40.5782766 31.0133309,38.0108645 35.6805354,33.3481563 C36.2875418,32.74115 36.4988699,31.8418813 36.2156003,31.0280431 C34.4268826,25.8253261 30.5642213,21.7695937 25.7548549,19.6740483 C23.7580984,21.4866782 21.1091219,22.5929028 18.2077447,22.5929028 C15.3060178,22.5929028 12.6567523,21.4864114 10.6599124,19.6733927 Z" id="Combined-Shape"></path>
                        <path d="M18.2077447,22.5929028 C12.0117834,22.5929028 6.96688606,17.5480054 6.96688606,11.3520441 C6.96688606,5.1560828 12.0117834,0.111185431 18.2077447,0.111185431 C24.403706,0.111185431 29.4486034,5.1560828 29.4486034,11.3520441 C29.4486034,17.5480054 24.403706,22.5929028 18.2077447,22.5929028 L18.2077447,22.5929028 Z" id="Shape"></path>
                    </g>
                    <path d="M92.2862265,103.527085 L11.3520441,103.527085 C5.1560828,103.527085 0.111185431,98.4821877 0.111185431,92.2862265 L0.111185431,11.3520441 C0.111185431,5.1560828 5.1560828,0.111185431 11.3520441,0.111185431 L92.2862265,0.111185431 C98.4821877,0.111185431 103.527085,5.1560828 103.527085,11.3520441 L103.527085,92.2862265 C103.527085,98.4821877 98.4821877,103.527085 92.2862265,103.527085 L92.2862265,103.527085 Z" id="Shape" stroke="#1E4C82" stroke-width="2.4"></path>
                    <path d="M47.3227918,92.1333675 L24.8410745,92.1333675 C23.6000837,92.1333675 22.5929028,91.4249302 22.5929028,90.5520342 L22.5929028,84.2267011 C22.5929028,83.3538051 23.6000837,82.6453678 24.8410745,82.6453678 L47.3227918,82.6453678 C48.5637826,82.6453678 49.5709635,83.3538051 49.5709635,84.2267011 L49.5709635,90.5520342 C49.5709635,91.4249302 48.5637826,92.1333675 47.3227918,92.1333675 L47.3227918,92.1333675 Z" id="Shape" stroke="#1E4C82" stroke-width="2.4"></path>
                    <path d="M78.7971961,92.1333675 L56.3154787,92.1333675 C55.0744879,92.1333675 54.067307,91.4249302 54.067307,90.5520342 L54.067307,84.2267011 C54.067307,83.3538051 55.0744879,82.6453678 56.3154787,82.6453678 L78.7971961,82.6453678 C80.0381869,82.6453678 81.0453678,83.3538051 81.0453678,84.2267011 L81.0453678,90.5520342 C81.0453678,91.4249302 80.0381869,92.1333675 78.7971961,92.1333675 L78.7971961,92.1333675 Z" id="Shape" stroke="#1E4C82" stroke-width="2.4"></path>
                    <circle id="Oval" fill="#1E4C82" cx="10.7038724" cy="11.5038724" r="1.6"></circle>
                    <ellipse id="Oval" fill="#1E4C82" cx="19.6965593" cy="11.5038724" rx="1.6" ry="1.6"></ellipse>
                    <ellipse id="Oval" fill="#1E4C82" cx="28.6892462" cy="11.5038724" rx="1.6" ry="1.6"></ellipse>
                </g>
                <rect id="Rectangle-33" fill="#1E4C82" x="0.4" y="18.4" width="102.4" height="2.4"></rect>
            </g>
        </g>
    </g>
</svg>